<svg width="247" height="19" viewBox="0 0 247 19" fill="none" xmlns="http://www.w3.org/2000/svg">
<path d="M2.40692 11.8461C2.40692 12.2961 2.57135 12.6509 2.90021 12.9105C3.22906 13.1702 3.6185 13.3 4.06851 13.3C4.61661 13.3 5.14739 13.173 5.66087 12.9192C6.52628 12.498 6.95899 11.8086 6.95899 10.8509V9.59601C6.7686 9.71717 6.5234 9.81813 6.22339 9.8989C5.92338 9.97967 5.62914 10.0374 5.34067 10.072L4.39737 10.1931C3.83197 10.2681 3.40792 10.3864 3.12521 10.548C2.64635 10.8191 2.40692 11.2518 2.40692 11.8461ZM6.18012 8.69598C6.53782 8.64983 6.77725 8.49982 6.89841 8.24597C6.96764 8.1075 7.00226 7.90846 7.00226 7.64883C7.00226 7.11805 6.81187 6.73438 6.43109 6.49784C6.05607 6.25552 5.51663 6.13436 4.81277 6.13436C3.99928 6.13436 3.42234 6.3536 3.08194 6.79208C2.89155 7.03439 2.76751 7.39498 2.70982 7.87384H1.25593C1.28477 6.7315 1.65402 5.9382 2.36365 5.49396C3.07906 5.04395 3.90697 4.81894 4.84738 4.81894C5.9378 4.81894 6.82341 5.02664 7.5042 5.44203C8.17922 5.85743 8.51673 6.50361 8.51673 7.38056V12.7201C8.51673 12.8817 8.54846 13.0115 8.61192 13.1096C8.68115 13.2077 8.82251 13.2567 9.03597 13.2567C9.10521 13.2567 9.18309 13.2538 9.26963 13.248C9.35618 13.2365 9.44849 13.2221 9.54657 13.2048V14.3558C9.30425 14.425 9.11963 14.4683 8.9927 14.4856C8.86578 14.5029 8.69269 14.5115 8.47346 14.5115C7.9369 14.5115 7.54747 14.3212 7.30515 13.9404C7.17822 13.7384 7.0888 13.4529 7.03687 13.0836C6.71956 13.499 6.26377 13.8596 5.66952 14.1654C5.07527 14.4712 4.42045 14.624 3.70504 14.624C2.8454 14.624 2.14153 14.3644 1.59344 13.8452C1.05111 13.3202 0.77995 12.6653 0.77995 11.8807C0.77995 11.0211 1.04823 10.3547 1.58478 9.88159C2.12134 9.4085 2.82521 9.11715 3.69639 9.00753L6.18012 8.69598ZM10.3694 5.04395H11.8493V6.35937C12.2877 5.81705 12.7522 5.42761 13.2426 5.19106C13.733 4.95452 14.2782 4.83625 14.8782 4.83625C16.1936 4.83625 17.0821 5.29491 17.5437 6.21225C17.7975 6.71419 17.9244 7.43248 17.9244 8.36712V14.3125H16.3407V8.47097C16.3407 7.90557 16.2571 7.44979 16.0898 7.10362C15.8128 6.52668 15.3109 6.23821 14.584 6.23821C14.2147 6.23821 13.9118 6.27571 13.6753 6.35072C13.2483 6.47764 12.8733 6.7315 12.5502 7.11228C12.2906 7.41806 12.1204 7.73537 12.0396 8.06423C11.9646 8.38732 11.9271 8.85175 11.9271 9.45754V14.3125H10.3694V5.04395ZM27.6098 4.83625C28.2675 4.83625 28.905 4.99202 29.5223 5.30357C30.1397 5.60935 30.6099 6.00744 30.933 6.49784C31.2445 6.96516 31.4522 7.51037 31.5561 8.13346C31.6484 8.5604 31.6945 9.24119 31.6945 10.1758H24.901C24.9299 11.1162 25.152 11.872 25.5674 12.4432C25.9828 13.0086 26.6261 13.2913 27.4973 13.2913C28.3108 13.2913 28.9598 13.023 29.4444 12.4865C29.7214 12.1749 29.9175 11.8143 30.0329 11.4047H31.5647C31.5243 11.7451 31.3887 12.1259 31.158 12.5471C30.933 12.9625 30.6791 13.3029 30.3964 13.5682C29.9233 14.0298 29.3377 14.3413 28.6396 14.5029C28.2646 14.5952 27.8406 14.6414 27.3675 14.6414C26.2136 14.6414 25.2357 14.2231 24.4337 13.3865C23.6318 12.5442 23.2308 11.3672 23.2308 9.85563C23.2308 8.36712 23.6347 7.15843 24.4424 6.22956C25.2501 5.30068 26.3059 4.83625 27.6098 4.83625ZM30.0935 8.9383C30.03 8.26328 29.8829 7.72384 29.6521 7.31998C29.2252 6.56995 28.5127 6.19494 27.5146 6.19494C26.7992 6.19494 26.1992 6.45457 25.7145 6.97381C25.2299 7.48729 24.9732 8.14212 24.9443 8.9383H30.0935ZM32.0241 5.04395H34.0405L36.1694 8.30655L38.3243 5.04395L40.2195 5.08722L37.0954 9.56139L40.358 14.3125H38.3675L36.0655 10.8335L33.8328 14.3125H31.8596L35.1222 9.56139L32.0241 5.04395ZM44.9713 13.2654C45.6983 13.2654 46.3012 12.9625 46.78 12.3567C47.2647 11.7451 47.507 10.8335 47.507 9.62197C47.507 8.88349 47.4002 8.24885 47.1868 7.71807C46.7829 6.69688 46.0444 6.18629 44.9713 6.18629C43.8924 6.18629 43.1539 6.72573 42.7559 7.80461C42.5424 8.38155 42.4357 9.11426 42.4357 10.0028C42.4357 10.7182 42.5424 11.3268 42.7559 11.8288C43.1597 12.7865 43.8982 13.2654 44.9713 13.2654ZM40.9385 5.08722H42.453V6.3161C42.7645 5.89493 43.1049 5.56896 43.4741 5.33818C43.9992 4.99202 44.6165 4.81894 45.3261 4.81894C46.3762 4.81894 47.2675 5.2228 48.0003 6.03051C48.733 6.83246 49.0993 7.98057 49.0993 9.47485C49.0993 11.4941 48.5714 12.9365 47.5156 13.8019C46.8464 14.35 46.0675 14.624 45.179 14.624C44.4809 14.624 43.8953 14.4712 43.4222 14.1654C43.1453 13.9923 42.8366 13.6952 42.4962 13.274V18.0078H40.9385V5.08722ZM54.0761 4.83625C54.7338 4.83625 55.3714 4.99202 55.9887 5.30357C56.606 5.60935 57.0762 6.00744 57.3993 6.49784C57.7109 6.96516 57.9186 7.51037 58.0224 8.13346C58.1147 8.5604 58.1609 9.24119 58.1609 10.1758H51.3674C51.3962 11.1162 51.6184 11.872 52.0338 12.4432C52.4492 13.0086 53.0924 13.2913 53.9636 13.2913C54.7771 13.2913 55.4262 13.023 55.9108 12.4865C56.1877 12.1749 56.3839 11.8143 56.4993 11.4047H58.0311C57.9907 11.7451 57.8551 12.1259 57.6243 12.5471C57.3993 12.9625 57.1455 13.3029 56.8628 13.5682C56.3897 14.0298 55.8041 14.3413 55.106 14.5029C54.731 14.5952 54.3069 14.6414 53.8338 14.6414C52.6799 14.6414 51.702 14.2231 50.9001 13.3865C50.0981 12.5442 49.6971 11.3672 49.6971 9.85563C49.6971 8.36712 50.101 7.15843 50.9087 6.22956C51.7164 5.30068 52.7722 4.83625 54.0761 4.83625ZM56.5599 8.9383C56.4964 8.26328 56.3493 7.72384 56.1185 7.31998C55.6916 6.56995 54.979 6.19494 53.9809 6.19494C53.2655 6.19494 52.6655 6.45457 52.1809 6.97381C51.6962 7.48729 51.4395 8.14212 51.4107 8.9383H56.5599ZM59.4164 5.04395H60.8963V6.64496C61.0174 6.33341 61.3145 5.95551 61.7876 5.51127C62.2607 5.06125 62.8059 4.83625 63.4233 4.83625C63.4521 4.83625 63.5012 4.83913 63.5704 4.8449C63.6396 4.85067 63.7579 4.86221 63.9252 4.87952V6.5238C63.8329 6.50649 63.7464 6.49495 63.6656 6.48918C63.5906 6.48341 63.5069 6.48053 63.4146 6.48053C62.63 6.48053 62.0271 6.73438 61.6059 7.24209C61.1847 7.74403 60.9742 8.32385 60.9742 8.98157V14.3125H59.4164V5.04395ZM64.5663 5.08722H66.15V14.3125H64.5663V5.08722ZM64.5663 1.59961H66.15V3.36505H64.5663V1.59961ZM67.8036 5.04395H69.3441V6.35937C69.7133 5.90359 70.0479 5.57185 70.3479 5.36415C70.8614 5.01221 71.4441 4.83625 72.0961 4.83625C72.8346 4.83625 73.4288 5.01798 73.8788 5.38146C74.1327 5.58915 74.3634 5.89493 74.5711 6.29879C74.9173 5.80262 75.3241 5.43626 75.7914 5.19972C76.2587 4.9574 76.7837 4.83625 77.3664 4.83625C78.6126 4.83625 79.4607 5.28626 79.9107 6.18629C80.153 6.67092 80.2742 7.32286 80.2742 8.14212V14.3125H78.6559V7.87384C78.6559 7.25651 78.5001 6.83246 78.1886 6.60169C77.8828 6.37091 77.5078 6.25552 77.0635 6.25552C76.452 6.25552 75.9241 6.46033 75.4798 6.86996C75.0414 7.27959 74.8221 7.96327 74.8221 8.92099V14.3125H73.2384V8.26328C73.2384 7.63441 73.1634 7.17574 73.0134 6.88727C72.7769 6.45457 72.3355 6.23821 71.6893 6.23821C71.1008 6.23821 70.5643 6.4661 70.0797 6.92189C69.6008 7.37767 69.3614 8.2027 69.3614 9.39696V14.3125H67.8036V5.04395ZM85.7183 4.83625C86.376 4.83625 87.0136 4.99202 87.6309 5.30357C88.2482 5.60935 88.7184 6.00744 89.0415 6.49784C89.3531 6.96516 89.5608 7.51037 89.6646 8.13346C89.7569 8.5604 89.8031 9.24119 89.8031 10.1758H83.0096C83.0384 11.1162 83.2606 11.872 83.676 12.4432C84.0914 13.0086 84.7346 13.2913 85.6058 13.2913C86.4193 13.2913 87.0684 13.023 87.553 12.4865C87.8299 12.1749 88.0261 11.8143 88.1415 11.4047H89.6733C89.6329 11.7451 89.4973 12.1259 89.2665 12.5471C89.0415 12.9625 88.7877 13.3029 88.505 13.5682C88.0319 14.0298 87.4463 14.3413 86.7482 14.5029C86.3732 14.5952 85.9491 14.6414 85.476 14.6414C84.3221 14.6414 83.3442 14.2231 82.5423 13.3865C81.7403 12.5442 81.3394 11.3672 81.3394 9.85563C81.3394 8.36712 81.7432 7.15843 82.5509 6.22956C83.3586 5.30068 84.4144 4.83625 85.7183 4.83625ZM88.2021 8.9383C88.1386 8.26328 87.9915 7.72384 87.7607 7.31998C87.3338 6.56995 86.6212 6.19494 85.6231 6.19494C84.9077 6.19494 84.3077 6.45457 83.8231 6.97381C83.3385 7.48729 83.0817 8.14212 83.0529 8.9383H88.2021ZM91.0153 5.04395H92.4952V6.35937C92.9337 5.81705 93.3981 5.42761 93.8885 5.19106C94.3789 4.95452 94.9241 4.83625 95.5241 4.83625C96.8396 4.83625 97.7281 5.29491 98.1896 6.21225C98.4435 6.71419 98.5704 7.43248 98.5704 8.36712V14.3125H96.9867V8.47097C96.9867 7.90557 96.903 7.44979 96.7357 7.10362C96.4588 6.52668 95.9568 6.23821 95.2299 6.23821C94.8607 6.23821 94.5578 6.27571 94.3212 6.35072C93.8943 6.47764 93.5193 6.7315 93.1962 7.11228C92.9366 7.41806 92.7664 7.73537 92.6856 8.06423C92.6106 8.38732 92.5731 8.85175 92.5731 9.45754V14.3125H91.0153V5.04395ZM100.484 2.45637H102.059V5.04395H103.539V6.3161H102.059V12.3653C102.059 12.6884 102.168 12.9048 102.388 13.0144C102.509 13.0778 102.711 13.1096 102.993 13.1096C103.068 13.1096 103.149 13.1096 103.236 13.1096C103.322 13.1038 103.423 13.0952 103.539 13.0836V14.3125C103.36 14.3644 103.172 14.4019 102.976 14.425C102.786 14.4481 102.578 14.4596 102.353 14.4596C101.626 14.4596 101.133 14.275 100.873 13.9058C100.613 13.5307 100.484 13.0461 100.484 12.4519V6.3161H99.2288V5.04395H100.484V2.45637ZM108.499 1.55634H110.013V6.16898C110.354 5.72474 110.76 5.38722 111.233 5.15645C111.707 4.9199 112.22 4.80163 112.774 4.80163C113.928 4.80163 114.862 5.19972 115.578 5.9959C116.299 6.78631 116.66 7.95461 116.66 9.50081C116.66 10.9662 116.305 12.1836 115.595 13.1528C114.885 14.1221 113.902 14.6067 112.644 14.6067C111.94 14.6067 111.346 14.4365 110.861 14.0961C110.573 13.8942 110.264 13.5711 109.935 13.1269V14.3125H108.499V1.55634ZM112.549 13.2307C113.391 13.2307 114.02 12.8961 114.435 12.2269C114.857 11.5576 115.067 10.6749 115.067 9.5787C115.067 8.60367 114.857 7.79595 114.435 7.15555C114.02 6.51514 113.406 6.19494 112.592 6.19494C111.882 6.19494 111.259 6.45745 110.723 6.98247C110.192 7.50748 109.927 8.37289 109.927 9.5787C109.927 10.4499 110.036 11.1566 110.256 11.699C110.665 12.7201 111.43 13.2307 112.549 13.2307ZM123.566 5.04395H125.288C125.069 5.63819 124.582 6.99401 123.826 9.11138C123.26 10.7037 122.787 12.0019 122.407 13.0057C121.507 15.3712 120.872 16.8135 120.503 17.3328C120.133 17.852 119.499 18.1117 118.599 18.1117C118.38 18.1117 118.209 18.103 118.088 18.0857C117.973 18.0684 117.829 18.0367 117.655 17.9905V16.5712C117.927 16.6462 118.123 16.6924 118.244 16.7097C118.365 16.727 118.472 16.7357 118.564 16.7357C118.853 16.7357 119.063 16.6866 119.196 16.5885C119.334 16.4962 119.45 16.3808 119.542 16.2424C119.571 16.1962 119.675 15.9597 119.854 15.5327C120.032 15.1058 120.162 14.7885 120.243 14.5808L116.816 5.04395H118.581L121.065 12.5903L123.566 5.04395ZM130.915 5.04395L133.39 12.5903L135.978 5.04395H137.682L134.186 14.3125H132.525L129.106 5.04395H130.915ZM138.306 5.08722H139.89V14.3125H138.306V5.08722ZM138.306 1.59961H139.89V3.36505H138.306V1.59961ZM142.47 11.4047C142.516 11.924 142.646 12.3221 142.859 12.599C143.251 13.1009 143.932 13.3519 144.901 13.3519C145.478 13.3519 145.986 13.2279 146.425 12.9798C146.863 12.7259 147.082 12.3365 147.082 11.8115C147.082 11.4134 146.906 11.1105 146.554 10.9028C146.329 10.7759 145.885 10.6287 145.222 10.4614L143.984 10.1499C143.194 9.95371 142.611 9.73447 142.236 9.49216C141.567 9.07099 141.232 8.48828 141.232 7.74403C141.232 6.86708 141.546 6.15744 142.175 5.61512C142.81 5.07279 143.661 4.80163 144.728 4.80163C146.124 4.80163 147.131 5.21126 147.749 6.03051C148.135 6.54976 148.323 7.10939 148.311 7.70941H146.84C146.811 7.35748 146.687 7.03728 146.468 6.74881C146.11 6.33918 145.49 6.13436 144.607 6.13436C144.019 6.13436 143.572 6.24687 143.266 6.47187C142.966 6.69688 142.816 6.99401 142.816 7.36325C142.816 7.76711 143.015 8.09019 143.413 8.33251C143.644 8.47674 143.984 8.60367 144.434 8.71329L145.464 8.96426C146.583 9.23542 147.333 9.49793 147.714 9.75178C148.32 10.1499 148.623 10.7759 148.623 11.6297C148.623 12.4548 148.308 13.1673 147.679 13.7673C147.056 14.3673 146.104 14.6673 144.823 14.6673C143.445 14.6673 142.467 14.3558 141.89 13.7327C141.319 13.1038 141.013 12.3278 140.972 11.4047H142.47ZM151.254 5.04395V11.197C151.254 11.6701 151.329 12.0567 151.479 12.3567C151.756 12.9105 152.273 13.1875 153.028 13.1875C154.113 13.1875 154.851 12.7028 155.244 11.7336C155.457 11.2143 155.564 10.5018 155.564 9.59601V5.04395H157.122V14.3125H155.65L155.668 12.9452C155.466 13.2971 155.215 13.5942 154.915 13.8365C154.321 14.3212 153.599 14.5635 152.751 14.5635C151.43 14.5635 150.53 14.1221 150.051 13.2394C149.792 12.7663 149.662 12.1345 149.662 11.3441V5.04395H151.254ZM160.047 11.8461C160.047 12.2961 160.212 12.6509 160.541 12.9105C160.87 13.1702 161.259 13.3 161.709 13.3C162.257 13.3 162.788 13.173 163.301 12.9192C164.167 12.498 164.6 11.8086 164.6 10.8509V9.59601C164.409 9.71717 164.164 9.81813 163.864 9.8989C163.564 9.97967 163.27 10.0374 162.981 10.072L162.038 10.1931C161.473 10.2681 161.048 10.3864 160.766 10.548C160.287 10.8191 160.047 11.2518 160.047 11.8461ZM163.821 8.69598C164.178 8.64983 164.418 8.49982 164.539 8.24597C164.608 8.1075 164.643 7.90846 164.643 7.64883C164.643 7.11805 164.452 6.73438 164.072 6.49784C163.697 6.25552 163.157 6.13436 162.453 6.13436C161.64 6.13436 161.063 6.3536 160.722 6.79208C160.532 7.03439 160.408 7.39498 160.35 7.87384H158.896C158.925 6.7315 159.295 5.9382 160.004 5.49396C160.72 5.04395 161.548 4.81894 162.488 4.81894C163.578 4.81894 164.464 5.02664 165.145 5.44203C165.82 5.85743 166.157 6.50361 166.157 7.38056V12.7201C166.157 12.8817 166.189 13.0115 166.252 13.1096C166.322 13.2077 166.463 13.2567 166.677 13.2567C166.746 13.2567 166.824 13.2538 166.91 13.248C166.997 13.2365 167.089 13.2221 167.187 13.2048V14.3558C166.945 14.425 166.76 14.4683 166.633 14.4856C166.506 14.5029 166.333 14.5115 166.114 14.5115C165.577 14.5115 165.188 14.3212 164.946 13.9404C164.819 13.7384 164.729 13.4529 164.677 13.0836C164.36 13.499 163.904 13.8596 163.31 14.1654C162.716 14.4712 162.061 14.624 161.346 14.624C160.486 14.624 159.782 14.3644 159.234 13.8452C158.692 13.3202 158.42 12.6653 158.42 11.8807C158.42 11.0211 158.689 10.3547 159.225 9.88159C159.762 9.4085 160.466 9.11715 161.337 9.00753L163.821 8.69598ZM168.053 1.59961H169.611V14.3125H168.053V1.59961ZM176.414 8.77387H189.958V10.046H176.414V8.77387ZM199.892 11.7957L199.927 11.8666L199.378 12.4161C198.704 13.0896 198.161 13.6036 197.747 13.958C197.346 14.3007 197.021 14.472 196.773 14.472C196.595 14.472 196.454 14.3893 196.347 14.2239C196.241 14.0466 196.188 13.7217 196.188 13.2491C196.188 12.9182 196.2 12.6524 196.223 12.4515L197.978 6.17736L196.241 6.81541L196.205 6.72679L199.626 4.7063H199.732L197.18 13.444L199.892 11.7957ZM199.538 3.30613C199.301 3.30613 199.106 3.23523 198.953 3.09345C198.799 2.93984 198.722 2.74488 198.722 2.50857C198.722 2.21317 198.829 1.96504 199.041 1.76417C199.266 1.55149 199.532 1.44515 199.839 1.44515C200.075 1.44515 200.264 1.51604 200.406 1.65783C200.548 1.79962 200.619 1.98867 200.619 2.22499C200.619 2.52038 200.506 2.77442 200.282 2.9871C200.069 3.19979 199.821 3.30613 199.538 3.30613ZM208.947 0.842545H208.965L205.65 13.4795L208.38 11.8489L208.415 11.9021L207.866 12.4515C207.192 13.125 206.649 13.639 206.235 13.9935C205.834 14.3361 205.509 14.5075 205.261 14.5075C205.083 14.5075 204.942 14.4247 204.835 14.2593C204.729 14.0821 204.676 13.7572 204.676 13.2845C204.676 12.9537 204.688 12.6878 204.711 12.487L206.147 6.69134H205.934C205.331 8.62912 204.835 10.1179 204.445 11.1577C204.055 12.1857 203.636 13.001 203.187 13.6036C202.738 14.2062 202.23 14.5075 201.663 14.5075C201.178 14.5075 200.818 14.3361 200.582 13.9935C200.357 13.639 200.245 13.1546 200.245 12.5401C200.245 11.5712 200.469 10.4842 200.918 9.27899C201.367 8.07378 201.964 7.05172 202.708 6.2128C203.465 5.36207 204.268 4.9367 205.119 4.9367C205.65 4.9367 206.117 5.02532 206.519 5.20256L207.387 1.711L205.349 1.76417L205.385 1.65783L208.858 0.807099H208.965L208.947 0.842545ZM202.407 13.4795C202.655 13.4795 202.897 13.3259 203.134 13.0187C203.382 12.6997 203.713 12.0143 204.126 10.9627C204.552 9.91113 205.113 8.31601 205.81 6.17736C205.668 5.90559 205.479 5.70473 205.243 5.57475C205.018 5.44478 204.776 5.37979 204.516 5.37979C204.02 5.37979 203.553 5.76381 203.116 6.53183C202.679 7.28804 202.324 8.19785 202.053 9.26127C201.793 10.3247 201.663 11.2522 201.663 12.0439C201.663 12.4929 201.722 12.8473 201.84 13.1073C201.97 13.3554 202.159 13.4795 202.407 13.4795ZM213.546 4.84808C214.219 4.84808 214.71 5.0135 215.017 5.34435C215.324 5.67519 215.466 6.03557 215.442 6.42549C215.43 7.42983 214.94 8.20967 213.971 8.76501C213.002 9.30853 211.779 9.69845 210.302 9.93476C210.243 10.9627 210.403 11.8135 210.781 12.487C211.159 13.1605 211.768 13.4972 212.606 13.4972C212.866 13.4972 213.085 13.4677 213.262 13.4086C213.439 13.3377 213.611 13.255 213.776 13.1605C213.942 13.0541 214.066 12.9773 214.148 12.9301L214.237 13.0364C212.961 14.0053 212.104 14.4897 211.667 14.4897C210.875 14.4897 210.231 14.2121 209.735 13.6567C209.251 13.1014 209.009 12.3215 209.009 11.3172C209.009 10.7619 209.085 10.177 209.239 9.56257C209.499 8.4637 209.895 7.5598 210.426 6.85085C210.97 6.14191 211.525 5.63383 212.092 5.32662C212.671 5.0076 213.156 4.84808 213.546 4.84808ZM210.32 9.66891C210.84 9.59802 211.378 9.45623 211.933 9.24354C212.5 9.01904 212.985 8.70593 213.386 8.30419C213.788 7.90246 213.989 7.40619 213.989 6.81541C213.989 6.48457 213.906 6.20099 213.741 5.96467C213.575 5.71654 213.262 5.59248 212.801 5.59248C212.388 5.59248 211.968 5.80516 211.543 6.23053C211.118 6.65589 210.769 7.44755 210.497 8.60549C210.415 8.92452 210.356 9.27899 210.32 9.66891ZM223.934 11.8312L223.969 11.9021L223.455 12.4161C222.781 13.0896 222.238 13.6036 221.824 13.958C221.411 14.3125 221.074 14.4897 220.814 14.4897C220.637 14.4897 220.495 14.407 220.389 14.2416C220.282 14.0762 220.229 13.7572 220.229 13.2845C220.229 12.9537 220.241 12.6878 220.265 12.487L221.789 8.25102C221.99 7.66023 222.09 7.17579 222.09 6.79768C222.09 6.49047 222.031 6.26007 221.913 6.10646C221.807 5.94104 221.683 5.85833 221.541 5.85833C221.033 5.85833 220.371 6.67953 219.556 8.32191C218.74 9.9643 217.931 11.9612 217.128 14.3125H215.781L217.907 6.01784L215.373 7.54208L215.338 7.47118L215.887 6.92175C216.56 6.24825 217.098 5.74017 217.5 5.39752C217.913 5.04304 218.244 4.86581 218.492 4.86581C218.67 4.86581 218.811 4.95443 218.918 5.13166C219.024 5.29708 219.077 5.61611 219.077 6.08874C219.077 6.41958 219.065 6.68543 219.042 6.8863L217.269 12.6288H217.482C218.191 10.5728 218.989 8.7591 219.875 7.1876C220.761 5.60429 221.624 4.81264 222.462 4.81264C222.77 4.81264 223.024 4.9308 223.225 5.16711C223.425 5.40342 223.526 5.7579 223.526 6.23053C223.526 6.76224 223.396 7.38847 223.136 8.10923L221.204 13.4618L223.934 11.8312ZM229.972 5.6102C229.594 5.6102 228.932 5.55112 227.987 5.43296L225.683 13.4795L228.413 11.8312L228.448 11.9021L227.881 12.4692C227.243 13.1191 226.717 13.6213 226.303 13.9758C225.89 14.3302 225.553 14.5075 225.293 14.5075C225.116 14.5075 224.974 14.4247 224.868 14.2593C224.762 14.0821 224.708 13.7572 224.708 13.2845C224.708 12.9537 224.72 12.6878 224.744 12.487L226.623 5.39752C225.984 5.25573 225.6 5.1612 225.47 5.11394L225.506 5.02532H226.764C226.989 4.78901 227.272 4.46998 227.615 4.06825C227.958 3.66651 228.259 3.29431 228.519 2.95166H228.59L228.094 5.02532H230.114L229.972 5.6102ZM233.28 11.7957L233.315 11.8666L232.766 12.4161C232.092 13.0896 231.549 13.6036 231.135 13.958C230.733 14.3007 230.408 14.472 230.16 14.472C229.983 14.472 229.841 14.3893 229.735 14.2239C229.628 14.0466 229.575 13.7217 229.575 13.2491C229.575 12.9182 229.587 12.6524 229.611 12.4515L231.365 6.17736L229.628 6.81541L229.593 6.72679L233.014 4.7063H233.12L230.568 13.444L233.28 11.7957ZM232.925 3.30613C232.689 3.30613 232.494 3.23523 232.34 3.09345C232.187 2.93984 232.11 2.74488 232.11 2.50857C232.11 2.21317 232.216 1.96504 232.429 1.76417C232.653 1.55149 232.919 1.44515 233.226 1.44515C233.463 1.44515 233.652 1.51604 233.794 1.65783C233.935 1.79962 234.006 1.98867 234.006 2.22499C234.006 2.52038 233.894 2.77442 233.669 2.9871C233.457 3.19979 233.209 3.30613 232.925 3.30613ZM239.163 5.6102C238.785 5.6102 238.123 5.55112 237.178 5.43296L234.874 13.4795L237.603 11.8312L237.639 11.9021L237.072 12.4692C236.434 13.1191 235.908 13.6213 235.494 13.9758C235.081 14.3302 234.744 14.5075 234.484 14.5075C234.307 14.5075 234.165 14.4247 234.059 14.2593C233.952 14.0821 233.899 13.7572 233.899 13.2845C233.899 12.9537 233.911 12.6878 233.934 12.487L235.813 5.39752C235.175 5.25573 234.791 5.1612 234.661 5.11394L234.697 5.02532H235.955C236.179 4.78901 236.463 4.46998 236.806 4.06825C237.148 3.66651 237.45 3.29431 237.71 2.95166H237.781L237.284 5.02532H239.305L239.163 5.6102ZM244.827 5.02532H246.333C246.026 6.89221 245.364 8.73547 244.348 10.5551C243.344 12.3747 241.991 14.0171 240.289 15.4823C238.6 16.9592 236.626 18.0935 234.37 18.8852L234.706 17.5914L234.795 17.5382C236.993 17.1246 238.871 16.2621 240.431 14.9506L240.75 6.07101L238.269 7.54208L238.233 7.47118C238.233 7.47118 238.411 7.29395 238.765 6.93947C239.403 6.28961 239.935 5.78153 240.36 5.41524C240.797 5.04895 241.146 4.86581 241.406 4.86581C241.536 4.86581 241.642 4.91307 241.725 5.0076C241.808 5.10212 241.873 5.29708 241.92 5.59248C241.979 5.87605 242.026 6.30733 242.062 6.8863L241.619 13.8162C242.647 12.6583 243.426 11.3231 243.958 9.8107C244.49 8.29828 244.762 6.72679 244.773 5.09622L244.827 5.02532Z" fill="white"/>
</svg>
