<svg width="48" height="48" viewBox="0 0 48 48" fill="none" xmlns="http://www.w3.org/2000/svg">
<path d="M25.193 36.4952L25.5436 39.1858H22.6477L22.9983 36.4952C22.9983 36.2041 23.1139 35.925 23.3197 35.7192C23.5255 35.5134 23.8046 35.3978 24.0956 35.3978C24.3867 35.3978 24.6658 35.5134 24.8716 35.7192C25.0774 35.925 25.193 36.2041 25.193 36.4952ZM28.3655 29.7611C27.8185 29.7611 27.2838 29.9233 26.829 30.2272C26.3742 30.5311 26.0197 30.963 25.8104 31.4684C25.601 31.9737 25.5463 32.5298 25.653 33.0663C25.7597 33.6027 26.0231 34.0955 26.4099 34.4823C26.7967 34.8691 27.2894 35.1325 27.8259 35.2392C28.3624 35.3459 28.9185 35.2911 29.4238 35.0818C29.9292 34.8725 30.3611 34.518 30.665 34.0632C30.9689 33.6084 31.1311 33.0737 31.1311 32.5267C31.1311 32.1635 31.0595 31.8037 30.9205 31.4681C30.7814 31.1325 30.5776 30.8276 30.3207 30.5708C30.0638 30.314 29.7588 30.1103 29.4232 29.9713C29.0875 29.8324 28.7278 29.761 28.3645 29.7611H28.3655ZM19.5155 29.7611C18.9685 29.7611 18.4338 29.9233 17.979 30.2272C17.5242 30.5311 17.1697 30.963 16.9604 31.4684C16.751 31.9737 16.6963 32.5298 16.803 33.0663C16.9097 33.6027 17.1731 34.0955 17.5599 34.4823C17.9467 34.8691 18.4394 35.1325 18.9759 35.2392C19.5124 35.3459 20.0685 35.2911 20.5738 35.0818C21.0792 34.8725 21.5111 34.518 21.815 34.0632C22.1189 33.6084 22.2811 33.0737 22.2811 32.5267C22.2811 32.1635 22.2095 31.8037 22.0705 31.4681C21.9314 31.1325 21.7276 30.8276 21.4707 30.5708C21.2138 30.314 20.9088 30.1103 20.5732 29.9713C20.2375 29.8324 19.8778 29.761 19.5145 29.7611H19.5155ZM42.5508 23.9486C42.5508 33.1548 38.0302 41.0748 31.5455 44.5961C27.233 47.2455 20.9733 47.2455 16.9027 44.8305C10.1789 41.4358 5.44922 33.3658 5.44922 23.9495C5.44922 16.622 8.31234 10.1092 12.7514 5.98047C12.7514 5.98047 8.80641 13.7486 13.6045 18.6367C12.5105 2.34578 29.4745 12.7305 24.667 1.38672C38.8973 9.19891 25.5239 11.2305 32.5514 15.2814C32.5514 15.2814 38.7586 19.6877 35.9639 6.68172C39.9905 10.8058 42.5498 17.0223 42.5498 23.9495L42.5508 23.9486ZM36.1252 26.7489C35.8955 20.6092 30.9802 15.5373 24.8508 15.1173C24.5639 15.0977 24.2742 15.0883 23.992 15.0883C20.7749 15.0875 17.6893 16.3647 15.4138 18.6388C13.1383 20.9129 11.8592 23.9978 11.858 27.2148C11.8708 29.77 12.6734 32.2586 14.1558 34.3398V36.6836C14.1634 37.5446 14.5091 38.3681 15.1184 38.9765C15.7277 39.5849 16.5517 39.9294 17.4127 39.9358H17.9995V41.493C18.0062 42.3512 18.3522 43.1719 18.9618 43.7759C19.5715 44.38 20.3954 44.7183 21.2536 44.717H27.0455C27.9018 44.7178 28.7235 44.3787 29.33 43.7742C29.9366 43.1698 30.2785 42.3493 30.2808 41.493V39.9358H30.7852C31.646 39.9291 32.4695 39.5834 33.0771 38.9735C33.6847 38.3636 34.0274 37.5388 34.0308 36.678V34.053C35.493 31.9058 36.2269 29.3456 36.1242 26.7498L36.1252 26.7489Z" fill="#CC1307"/>
</svg>
