<svg width="42" height="48" viewBox="0 0 42 48" fill="none" xmlns="http://www.w3.org/2000/svg">
<path fill-rule="evenodd" clip-rule="evenodd" d="M13.7311 12.5726H4.33678V8.12571C4.33541 6.87995 4.82898 5.68468 5.7089 4.80283C6.58882 3.92098 7.78302 3.42479 9.02878 3.42343C10.2745 3.42206 11.4698 3.91563 12.3517 4.79555C13.2335 5.67547 13.7297 6.86967 13.7311 8.11543V12.5726ZM25.6762 16.5874C25.1353 15.3896 24.26 14.3736 23.1555 13.6613C22.0509 12.9491 20.7642 12.571 19.4499 12.5726H17.1596V4.69714C17.1596 3.45138 17.6545 2.25665 18.5354 1.37576C19.4163 0.494876 20.611 0 21.8568 0C23.1025 0 24.2973 0.494876 25.1782 1.37576C26.059 2.25665 26.5539 3.45138 26.5539 4.69714V13.8549C26.5539 14.8766 26.2282 15.8194 25.6762 16.5874ZM19.6728 16.8686C20.2626 16.9211 20.8158 17.1773 21.2374 17.5931C21.659 18.0089 21.9229 18.5584 21.9837 19.1474C22.0445 19.7364 21.8985 20.3283 21.5707 20.8214C21.2429 21.3146 20.7537 21.6783 20.1871 21.8503L12.9631 24.0446C12.4744 24.196 12.056 24.5172 11.7835 24.9502C11.511 25.3832 11.4024 25.8994 11.4774 26.4054C11.5524 26.9115 11.8059 27.3741 12.1922 27.7095C12.5785 28.0449 13.072 28.2311 13.5836 28.2343C14.8076 28.2343 16.3676 28.8446 17.6293 29.9966C18.8705 31.128 19.6076 32.5817 19.5768 34.0937C19.5707 34.3751 19.6201 34.655 19.7222 34.9173C19.8243 35.1796 19.977 35.4192 20.1717 35.6225C20.3664 35.8258 20.5992 35.9887 20.8568 36.102C21.1145 36.2153 21.3919 36.2768 21.6733 36.2829C21.9548 36.2889 22.2346 36.2395 22.4969 36.1375C22.7592 36.0354 22.9989 35.8826 23.2021 35.688C23.4054 35.4933 23.5684 35.2605 23.6817 35.0028C23.795 34.7451 23.8564 34.4677 23.8625 34.1863C23.9242 31.1589 22.4465 28.5874 20.5196 26.8286C20.352 26.6743 20.1794 26.5257 20.0019 26.3829L21.4316 25.9509C22.6135 25.5907 23.6762 24.9179 24.5072 24.0036C25.3383 23.0893 25.9068 21.9674 26.1528 20.7566C26.9633 20.2489 27.6792 19.6038 28.2682 18.8503C29.0603 19.8709 30.0845 20.6877 31.2557 21.2329C32.427 21.7781 33.7114 22.0359 35.0023 21.9849C36.2931 21.934 37.5532 21.5757 38.6778 20.9398C39.8024 20.304 40.759 19.409 41.4682 18.3291C41.6282 19.12 41.7082 19.9246 41.7082 20.7429V24.288C41.7082 33.9086 33.6888 37.1177 33.6888 37.1177V46.2857C33.6888 46.7404 33.5082 47.1764 33.1867 47.4979C32.8652 47.8194 32.4291 48 31.9745 48H10.0111C9.55641 48 9.12037 47.8194 8.79888 47.4979C8.47739 47.1764 8.29678 46.7404 8.29678 46.2857V37.9543C3.49678 36.288 0.273918 29.6503 0.277346 25.1246C0.277346 21.2126 1.15849 17.1257 5.49906 17.1257L19.6728 16.8686ZM34.6796 3.65486C33.4339 3.65486 32.2391 4.14973 31.3583 5.03062C30.4774 5.9115 29.9825 7.10624 29.9825 8.352V13.8549C29.9825 15.1006 30.4774 16.2954 31.3583 17.1762C32.2391 18.0571 33.4339 18.552 34.6796 18.552C35.9254 18.552 37.1201 18.0571 38.001 17.1762C38.8819 16.2954 39.3768 15.1006 39.3768 13.8549V8.352C39.3768 7.10624 38.8819 5.9115 38.001 5.03062C37.1201 4.14973 35.9254 3.65486 34.6796 3.65486Z" fill="#8C1B17"/>
</svg>
