<svg width="338" height="19" viewBox="0 0 338 19" fill="none" xmlns="http://www.w3.org/2000/svg">
<path d="M9.71832 3.87929L9.84134 6.48724H9.5297C9.46955 6.02798 9.38754 5.69994 9.28366 5.50311C9.11417 5.186 8.88727 4.95363 8.60297 4.80601C8.32413 4.65293 7.95508 4.57638 7.49582 4.57638H5.92941V13.0727C5.92941 13.7562 6.00322 14.1826 6.15084 14.3521C6.3586 14.5817 6.67844 14.6966 7.11037 14.6966H7.49582V15H2.78018V14.6966H3.17383C3.64403 14.6966 3.97754 14.5544 4.17437 14.2701C4.29465 14.0951 4.35479 13.696 4.35479 13.0727V4.57638H3.01801C2.49861 4.57638 2.12956 4.61465 1.91086 4.6912C1.62655 4.79508 1.38325 4.99464 1.18096 5.28988C0.978666 5.58512 0.858383 5.98424 0.820111 6.48724H0.508469L0.639687 3.87929H9.71832ZM13.7205 9.03779H18.8872V5.85576C18.8872 5.28715 18.8516 4.91263 18.7806 4.7322C18.7259 4.59552 18.6111 4.47797 18.4361 4.37956C18.201 4.24834 17.9522 4.18273 17.6898 4.18273H17.2962V3.87929H22.0528V4.18273H21.6591C21.3967 4.18273 21.1479 4.2456 20.9128 4.37136C20.7379 4.45883 20.6176 4.59279 20.552 4.77321C20.4919 4.94817 20.4618 5.30902 20.4618 5.85576V13.0317C20.4618 13.5949 20.4973 13.9667 20.5684 14.1471C20.6231 14.2838 20.7352 14.4013 20.9046 14.4997C21.1452 14.6309 21.3967 14.6966 21.6591 14.6966H22.0528V15H17.2962V14.6966H17.6898C18.1436 14.6966 18.4744 14.5626 18.6821 14.2947C18.8188 14.1197 18.8872 13.6988 18.8872 13.0317V9.64467H13.7205V13.0317C13.7205 13.5949 13.756 13.9667 13.8271 14.1471C13.8818 14.2838 13.9966 14.4013 14.1715 14.4997C14.4066 14.6309 14.6554 14.6966 14.9178 14.6966H15.3197V15H10.5548V14.6966H10.9485C11.4078 14.6966 11.7413 14.5626 11.949 14.2947C12.0802 14.1197 12.1459 13.6988 12.1459 13.0317V5.85576C12.1459 5.28715 12.1103 4.91263 12.0392 4.7322C11.9846 4.59552 11.8725 4.47797 11.703 4.37956C11.4624 4.24834 11.2109 4.18273 10.9485 4.18273H10.5548V3.87929H15.3197V4.18273H14.9178C14.6554 4.18273 14.4066 4.2456 14.1715 4.37136C14.002 4.45883 13.8845 4.59279 13.8189 4.77321C13.7533 4.94817 13.7205 5.30902 13.7205 5.85576V9.03779ZM25.9155 4.48617V8.88197H28.3595C28.9937 8.88197 29.4174 8.78629 29.6306 8.59493C29.9149 8.34343 30.0735 7.90057 30.1063 7.26635H30.4097V11.1373H30.1063C30.0297 10.596 29.9532 10.2488 29.8767 10.0957C29.7782 9.90437 29.617 9.75402 29.3928 9.64467C29.1686 9.53532 28.8242 9.48065 28.3595 9.48065H25.9155V13.1465C25.9155 13.6386 25.9374 13.9393 25.9811 14.0487C26.0249 14.1526 26.1014 14.2373 26.2108 14.3029C26.3201 14.363 26.5279 14.3931 26.834 14.3931H28.7203C29.3491 14.3931 29.8056 14.3494 30.0899 14.2619C30.3742 14.1744 30.6476 14.0022 30.91 13.7452C31.249 13.4063 31.5962 12.895 31.9515 12.2116H32.2796L31.3201 15H22.7499V14.6966H23.1435C23.406 14.6966 23.6547 14.6337 23.8898 14.5079C24.0648 14.4205 24.1824 14.2892 24.2425 14.1143C24.3081 13.9393 24.3409 13.5812 24.3409 13.0399V5.81475C24.3409 5.10946 24.2698 4.6748 24.1277 4.51077C23.9309 4.29208 23.6028 4.18273 23.1435 4.18273H22.7499V3.87929H31.3201L31.4431 6.31502H31.1232C31.0084 5.73001 30.8799 5.32815 30.7378 5.10946C30.6011 4.89076 30.3961 4.724 30.1227 4.60919C29.904 4.52718 29.5185 4.48617 28.9663 4.48617H25.9155ZM44.5731 3.62505V7.47138H44.2696C44.1712 6.73328 43.9935 6.14553 43.7365 5.70814C43.485 5.27074 43.1242 4.92356 42.654 4.6666C42.1838 4.40963 41.6972 4.28114 41.1942 4.28114C40.6256 4.28114 40.1554 4.4561 39.7836 4.80601C39.4118 5.15046 39.2259 5.54411 39.2259 5.98697C39.2259 6.32595 39.3435 6.63486 39.5786 6.9137C39.9176 7.32376 40.724 7.8705 41.9979 8.55392C43.0367 9.1116 43.7447 9.54079 44.122 9.8415C44.5047 10.1367 44.7972 10.4867 44.9995 10.8912C45.2073 11.2958 45.3112 11.7196 45.3112 12.1624C45.3112 13.0044 44.9831 13.7316 44.327 14.3439C43.6764 14.9508 42.8372 15.2542 41.8093 15.2542C41.4867 15.2542 41.1833 15.2296 40.899 15.1804C40.7295 15.1531 40.3768 15.0547 39.841 14.8852C39.3107 14.7102 38.9744 14.6227 38.8323 14.6227C38.6956 14.6227 38.5862 14.6638 38.5042 14.7458C38.4277 14.8278 38.3703 14.9973 38.332 15.2542H38.0286V11.4407H38.332C38.4742 12.239 38.6655 12.8376 38.9061 13.2368C39.1467 13.6304 39.513 13.9585 40.005 14.2209C40.5026 14.4833 41.0466 14.6145 41.6371 14.6145C42.3205 14.6145 42.859 14.4341 43.2527 14.0733C43.6518 13.7124 43.8514 13.286 43.8514 12.7939C43.8514 12.5205 43.7748 12.2444 43.6217 11.9656C43.4741 11.6867 43.2417 11.427 42.9246 11.1865C42.7114 11.0225 42.1291 10.6753 41.1778 10.1449C40.2265 9.60913 39.5485 9.18268 39.1439 8.86557C38.7448 8.54846 38.4414 8.19854 38.2336 7.81582C38.0258 7.4331 37.922 7.01211 37.922 6.55285C37.922 5.75461 38.2281 5.06845 38.8405 4.49437C39.4528 3.91483 40.2319 3.62505 41.1778 3.62505C41.7683 3.62505 42.3943 3.76994 43.0559 4.05971C43.362 4.1964 43.578 4.26474 43.7037 4.26474C43.8459 4.26474 43.9607 4.22374 44.0482 4.14172C44.1411 4.05425 44.2149 3.88202 44.2696 3.62505H44.5731ZM51.2406 8.83276L55.3411 12.9087C56.0136 13.5812 56.5877 14.0405 57.0634 14.2865C57.539 14.5271 58.0147 14.6638 58.4903 14.6966V15H53.2006V14.6966C53.5177 14.6966 53.7446 14.6446 53.8813 14.5407C54.0235 14.4314 54.0946 14.3111 54.0946 14.1799C54.0946 14.0487 54.0672 13.9311 54.0125 13.8272C53.9633 13.7234 53.7938 13.5293 53.5041 13.245L49.6659 9.44785V13.0317C49.6659 13.5949 49.7015 13.9667 49.7726 14.1471C49.8272 14.2838 49.9421 14.4013 50.117 14.4997C50.3521 14.6309 50.6009 14.6966 50.8633 14.6966H51.2406V15H46.5003V14.6966H46.894C47.3532 14.6966 47.6867 14.5626 47.8945 14.2947C48.0257 14.1197 48.0913 13.6988 48.0913 13.0317V5.84756C48.0913 5.28441 48.0558 4.9099 47.9847 4.724C47.93 4.59279 47.818 4.47797 47.6485 4.37956C47.4079 4.24834 47.1564 4.18273 46.894 4.18273H46.5003V3.87929H51.2406V4.18273H50.8633C50.6063 4.18273 50.3576 4.2456 50.117 4.37136C49.9475 4.45883 49.83 4.59005 49.7644 4.76501C49.6988 4.93997 49.6659 5.30081 49.6659 5.84756V9.25102C49.7753 9.14714 50.1498 8.79996 50.7895 8.20948C52.4133 6.72234 53.3947 5.73001 53.7337 5.23247C53.8813 5.01378 53.9551 4.82242 53.9551 4.65839C53.9551 4.53264 53.8977 4.4233 53.7829 4.33035C53.6681 4.23194 53.474 4.18273 53.2006 4.18273H52.9464V3.87929H57.0306V4.18273C56.79 4.1882 56.5713 4.221 56.3745 4.28114C56.1776 4.34128 55.9371 4.45883 55.6528 4.63379C55.3685 4.80328 55.0185 5.07938 54.603 5.4621C54.4827 5.57145 53.9278 6.13186 52.9382 7.14333L51.2406 8.83276ZM66.3716 4.18273V3.87929H70.3082V4.18273H69.8899C69.4525 4.18273 69.1163 4.36589 68.8812 4.7322C68.7663 4.90169 68.7089 5.29535 68.7089 5.91316V10.4238C68.7089 11.5391 68.5969 12.4057 68.3727 13.0235C68.154 13.6359 67.7193 14.1635 67.0687 14.6063C66.4236 15.0437 65.5433 15.2624 64.428 15.2624C63.2142 15.2624 62.2929 15.0519 61.6642 14.6309C61.0354 14.21 60.5898 13.6441 60.3274 12.9333C60.1524 12.4467 60.065 11.5337 60.065 10.1941V5.84756C60.065 5.16413 59.9693 4.7158 59.7779 4.50257C59.592 4.28934 59.2886 4.18273 58.8676 4.18273H58.4493V3.87929H63.2552V4.18273H62.8287C62.3695 4.18273 62.0414 4.32762 61.8446 4.61739C61.7079 4.81422 61.6396 5.22427 61.6396 5.84756V10.6944C61.6396 11.1263 61.6778 11.6211 61.7544 12.1788C61.8364 12.7365 61.9813 13.1712 62.1891 13.4828C62.3968 13.7944 62.6948 14.0514 63.083 14.2537C63.4766 14.456 63.9578 14.5571 64.5264 14.5571C65.2535 14.5571 65.9042 14.3986 66.4782 14.0815C67.0523 13.7644 67.4432 13.3598 67.651 12.8677C67.8642 12.3702 67.9708 11.5309 67.9708 10.35V5.84756C67.9708 5.15319 67.8943 4.71854 67.7412 4.54358C67.528 4.30301 67.2109 4.18273 66.7899 4.18273H66.3716ZM80.1249 11.9246L80.3955 11.982L79.4442 15H70.833V14.6966H71.2513C71.7215 14.6966 72.0577 14.5435 72.26 14.2373C72.3748 14.0623 72.4322 13.6578 72.4322 13.0235V5.84756C72.4322 5.15319 72.3557 4.71854 72.2026 4.54358C71.9894 4.30301 71.6723 4.18273 71.2513 4.18273H70.833V3.87929H75.8685V4.18273C75.278 4.17726 74.8625 4.23194 74.6219 4.34675C74.3868 4.46157 74.2256 4.60645 74.1381 4.78141C74.0506 4.95637 74.0069 5.37462 74.0069 6.03618V13.0235C74.0069 13.4773 74.0506 13.789 74.1381 13.9585C74.2037 14.0733 74.3048 14.158 74.4415 14.2127C74.5782 14.2674 75.0047 14.2947 75.7209 14.2947H76.5328C77.3857 14.2947 77.9844 14.2318 78.3288 14.1061C78.6733 13.9803 78.9877 13.7589 79.272 13.4418C79.5563 13.1192 79.8406 12.6135 80.1249 11.9246ZM90.3927 11.9246L90.6633 11.982L89.712 15H81.1008V14.6966H81.5191C81.9893 14.6966 82.3255 14.5435 82.5278 14.2373C82.6426 14.0623 82.7 13.6578 82.7 13.0235V5.84756C82.7 5.15319 82.6235 4.71854 82.4704 4.54358C82.2572 4.30301 81.9401 4.18273 81.5191 4.18273H81.1008V3.87929H86.1363V4.18273C85.5458 4.17726 85.1303 4.23194 84.8897 4.34675C84.6546 4.46157 84.4934 4.60645 84.4059 4.78141C84.3184 4.95637 84.2747 5.37462 84.2747 6.03618V13.0235C84.2747 13.4773 84.3184 13.789 84.4059 13.9585C84.4715 14.0733 84.5726 14.158 84.7093 14.2127C84.846 14.2674 85.2725 14.2947 85.9887 14.2947H86.8006C87.6535 14.2947 88.2522 14.2318 88.5966 14.1061C88.9411 13.9803 89.2555 13.7589 89.5398 13.4418C89.8241 13.1192 90.1084 12.6135 90.3927 11.9246ZM105.343 3.62505L105.598 7.40577H105.343C105.004 6.27401 104.52 5.45937 103.892 4.96184C103.263 4.4643 102.508 4.21553 101.628 4.21553C100.89 4.21553 100.223 4.40416 99.6271 4.78141C99.0312 5.15319 98.561 5.74914 98.2166 6.56925C97.8776 7.38937 97.7081 8.40904 97.7081 9.62827C97.7081 10.6343 97.8694 11.5063 98.1919 12.2444C98.5145 12.9825 98.9984 13.5484 99.6435 13.9421C100.294 14.3357 101.035 14.5325 101.866 14.5325C102.588 14.5325 103.225 14.3794 103.777 14.0733C104.329 13.7616 104.936 13.1465 105.598 12.228L105.852 12.392C105.294 13.3816 104.643 14.1061 103.9 14.5653C103.156 15.0246 102.273 15.2542 101.251 15.2542C99.4084 15.2542 97.9815 14.5708 96.97 13.204C96.2155 12.187 95.8382 10.9897 95.8382 9.61187C95.8382 8.50198 96.087 7.48231 96.5845 6.55285C97.0821 5.62339 97.7655 4.90443 98.6348 4.39596C99.5096 3.88202 100.464 3.62505 101.497 3.62505C102.301 3.62505 103.093 3.82188 103.875 4.21553C104.105 4.33582 104.269 4.39596 104.367 4.39596C104.515 4.39596 104.643 4.34402 104.753 4.24014C104.895 4.09252 104.996 3.88749 105.056 3.62505H105.343ZM117.784 15H114.816L111.051 9.80049C110.772 9.81143 110.546 9.8169 110.371 9.8169C110.3 9.8169 110.223 9.8169 110.141 9.8169C110.059 9.81143 109.974 9.80596 109.887 9.80049V13.0317C109.887 13.7316 109.963 14.1662 110.116 14.3357C110.324 14.5763 110.636 14.6966 111.051 14.6966H111.486V15H106.721V14.6966H107.139C107.61 14.6966 107.946 14.5435 108.148 14.2373C108.263 14.0678 108.32 13.666 108.32 13.0317V5.84756C108.32 5.14773 108.244 4.71307 108.091 4.54358C107.877 4.30301 107.56 4.18273 107.139 4.18273H106.721V3.87929H110.772C111.953 3.87929 112.823 3.96677 113.38 4.14172C113.944 4.31121 114.419 4.62832 114.807 5.09305C115.201 5.55232 115.398 6.10179 115.398 6.74148C115.398 7.4249 115.174 8.01812 114.725 8.52112C114.283 9.02412 113.594 9.3795 112.659 9.58726L114.955 12.7775C115.48 13.5101 115.931 13.9967 116.308 14.2373C116.685 14.4779 117.178 14.6309 117.784 14.6966V15ZM109.887 9.28382C109.991 9.28382 110.081 9.28656 110.157 9.29202C110.234 9.29202 110.297 9.29202 110.346 9.29202C111.407 9.29202 112.205 9.06239 112.741 8.60313C113.282 8.14387 113.553 7.55886 113.553 6.84809C113.553 6.15373 113.334 5.59059 112.897 5.15866C112.465 4.72127 111.891 4.50257 111.174 4.50257C110.857 4.50257 110.428 4.55451 109.887 4.65839V9.28382ZM125.649 4.18273V3.87929H129.586V4.18273H129.168C128.73 4.18273 128.394 4.36589 128.159 4.7322C128.044 4.90169 127.987 5.29535 127.987 5.91316V10.4238C127.987 11.5391 127.875 12.4057 127.65 13.0235C127.432 13.6359 126.997 14.1635 126.346 14.6063C125.701 15.0437 124.821 15.2624 123.706 15.2624C122.492 15.2624 121.571 15.0519 120.942 14.6309C120.313 14.21 119.867 13.6441 119.605 12.9333C119.43 12.4467 119.343 11.5337 119.343 10.1941V5.84756C119.343 5.16413 119.247 4.7158 119.056 4.50257C118.87 4.28934 118.566 4.18273 118.145 4.18273H117.727V3.87929H122.533V4.18273H122.106C121.647 4.18273 121.319 4.32762 121.122 4.61739C120.986 4.81422 120.917 5.22427 120.917 5.84756V10.6944C120.917 11.1263 120.956 11.6211 121.032 12.1788C121.114 12.7365 121.259 13.1712 121.467 13.4828C121.674 13.7944 121.972 14.0514 122.361 14.2537C122.754 14.456 123.235 14.5571 123.804 14.5571C124.531 14.5571 125.182 14.3986 125.756 14.0815C126.33 13.7644 126.721 13.3598 126.929 12.8677C127.142 12.3702 127.248 11.5309 127.248 10.35V5.84756C127.248 5.15319 127.172 4.71854 127.019 4.54358C126.806 4.30301 126.489 4.18273 126.068 4.18273H125.649ZM137.475 3.62505V7.47138H137.172C137.073 6.73328 136.896 6.14553 136.639 5.70814C136.387 5.27074 136.026 4.92356 135.556 4.6666C135.086 4.40963 134.599 4.28114 134.096 4.28114C133.528 4.28114 133.058 4.4561 132.686 4.80601C132.314 5.15046 132.128 5.54411 132.128 5.98697C132.128 6.32595 132.246 6.63486 132.481 6.9137C132.82 7.32376 133.626 7.8705 134.9 8.55392C135.939 9.1116 136.647 9.54079 137.024 9.8415C137.407 10.1367 137.699 10.4867 137.902 10.8912C138.11 11.2958 138.213 11.7196 138.213 12.1624C138.213 13.0044 137.885 13.7316 137.229 14.3439C136.579 14.9508 135.739 15.2542 134.712 15.2542C134.389 15.2542 134.085 15.2296 133.801 15.1804C133.632 15.1531 133.279 15.0547 132.743 14.8852C132.213 14.7102 131.877 14.6227 131.735 14.6227C131.598 14.6227 131.488 14.6638 131.406 14.7458C131.33 14.8278 131.273 14.9973 131.234 15.2542H130.931V11.4407H131.234C131.376 12.239 131.568 12.8376 131.808 13.2368C132.049 13.6304 132.415 13.9585 132.907 14.2209C133.405 14.4833 133.949 14.6145 134.539 14.6145C135.223 14.6145 135.761 14.4341 136.155 14.0733C136.554 13.7124 136.754 13.286 136.754 12.7939C136.754 12.5205 136.677 12.2444 136.524 11.9656C136.376 11.6867 136.144 11.427 135.827 11.1865C135.614 11.0225 135.031 10.6753 134.08 10.1449C133.129 9.60913 132.451 9.18268 132.046 8.86557C131.647 8.54846 131.344 8.19854 131.136 7.81582C130.928 7.4331 130.824 7.01211 130.824 6.55285C130.824 5.75461 131.13 5.06845 131.743 4.49437C132.355 3.91483 133.134 3.62505 134.08 3.62505C134.671 3.62505 135.297 3.76994 135.958 4.05971C136.264 4.1964 136.48 4.26474 136.606 4.26474C136.748 4.26474 136.863 4.22374 136.95 4.14172C137.043 4.05425 137.117 3.88202 137.172 3.62505H137.475ZM142.576 9.03779H147.743V5.85576C147.743 5.28715 147.708 4.91263 147.636 4.7322C147.582 4.59552 147.467 4.47797 147.292 4.37956C147.057 4.24834 146.808 4.18273 146.546 4.18273H146.152V3.87929H150.909V4.18273H150.515C150.253 4.18273 150.004 4.2456 149.769 4.37136C149.594 4.45883 149.474 4.59279 149.408 4.77321C149.348 4.94817 149.318 5.30902 149.318 5.85576V13.0317C149.318 13.5949 149.353 13.9667 149.424 14.1471C149.479 14.2838 149.591 14.4013 149.761 14.4997C150.001 14.6309 150.253 14.6966 150.515 14.6966H150.909V15H146.152V14.6966H146.546C147 14.6966 147.33 14.5626 147.538 14.2947C147.675 14.1197 147.743 13.6988 147.743 13.0317V9.64467H142.576V13.0317C142.576 13.5949 142.612 13.9667 142.683 14.1471C142.738 14.2838 142.852 14.4013 143.027 14.4997C143.263 14.6309 143.511 14.6966 143.774 14.6966H144.176V15H139.411V14.6966H139.804C140.264 14.6966 140.597 14.5626 140.805 14.2947C140.936 14.1197 141.002 13.6988 141.002 13.0317V5.85576C141.002 5.28715 140.966 4.91263 140.895 4.7322C140.84 4.59552 140.728 4.47797 140.559 4.37956C140.318 4.24834 140.067 4.18273 139.804 4.18273H139.411V3.87929H144.176V4.18273H143.774C143.511 4.18273 143.263 4.2456 143.027 4.37136C142.858 4.45883 142.74 4.59279 142.675 4.77321C142.609 4.94817 142.576 5.30902 142.576 5.85576V9.03779ZM154.771 4.48617V8.88197H157.215C157.85 8.88197 158.273 8.78629 158.487 8.59493C158.771 8.34343 158.929 7.90057 158.962 7.26635H159.266V11.1373H158.962C158.886 10.596 158.809 10.2488 158.733 10.0957C158.634 9.90437 158.473 9.75402 158.249 9.64467C158.025 9.53532 157.68 9.48065 157.215 9.48065H154.771V13.1465C154.771 13.6386 154.793 13.9393 154.837 14.0487C154.881 14.1526 154.957 14.2373 155.067 14.3029C155.176 14.363 155.384 14.3931 155.69 14.3931H157.576C158.205 14.3931 158.661 14.3494 158.946 14.2619C159.23 14.1744 159.503 14.0022 159.766 13.7452C160.105 13.4063 160.452 12.895 160.807 12.2116H161.135L160.176 15H151.606V14.6966H151.999C152.262 14.6966 152.511 14.6337 152.746 14.5079C152.921 14.4205 153.038 14.2892 153.098 14.1143C153.164 13.9393 153.197 13.5812 153.197 13.0399V5.81475C153.197 5.10946 153.126 4.6748 152.984 4.51077C152.787 4.29208 152.459 4.18273 151.999 4.18273H151.606V3.87929H160.176L160.299 6.31502H159.979C159.864 5.73001 159.736 5.32815 159.594 5.10946C159.457 4.89076 159.252 4.724 158.979 4.60919C158.76 4.52718 158.374 4.48617 157.822 4.48617H154.771ZM172.88 15H169.911L166.146 9.80049C165.868 9.81143 165.641 9.8169 165.466 9.8169C165.395 9.8169 165.318 9.8169 165.236 9.8169C165.154 9.81143 165.069 9.80596 164.982 9.80049V13.0317C164.982 13.7316 165.058 14.1662 165.211 14.3357C165.419 14.5763 165.731 14.6966 166.146 14.6966H166.581V15H161.816V14.6966H162.234C162.705 14.6966 163.041 14.5435 163.243 14.2373C163.358 14.0678 163.415 13.666 163.415 13.0317V5.84756C163.415 5.14773 163.339 4.71307 163.186 4.54358C162.973 4.30301 162.655 4.18273 162.234 4.18273H161.816V3.87929H165.868C167.049 3.87929 167.918 3.96677 168.476 4.14172C169.039 4.31121 169.514 4.62832 169.902 5.09305C170.296 5.55232 170.493 6.10179 170.493 6.74148C170.493 7.4249 170.269 8.01812 169.82 8.52112C169.378 9.02412 168.689 9.3795 167.754 9.58726L170.05 12.7775C170.575 13.5101 171.026 13.9967 171.403 14.2373C171.781 14.4779 172.273 14.6309 172.88 14.6966V15ZM164.982 9.28382C165.086 9.28382 165.176 9.28656 165.252 9.29202C165.329 9.29202 165.392 9.29202 165.441 9.29202C166.502 9.29202 167.3 9.06239 167.836 8.60313C168.377 8.14387 168.648 7.55886 168.648 6.84809C168.648 6.15373 168.429 5.59059 167.992 5.15866C167.56 4.72127 166.986 4.50257 166.269 4.50257C165.952 4.50257 165.523 4.55451 164.982 4.65839V9.28382Z" fill="white"/>
<path d="M180.476 12.5746C180.476 12.8589 180.58 13.0831 180.788 13.2471C180.996 13.4111 181.242 13.4931 181.526 13.4931C181.872 13.4931 182.208 13.4129 182.532 13.2526C183.079 12.9865 183.352 12.5509 183.352 11.9458V11.1531C183.232 11.2296 183.077 11.2934 182.887 11.3444C182.698 11.3955 182.512 11.4319 182.33 11.4538L181.734 11.5303C181.377 11.5777 181.109 11.6524 180.93 11.7545C180.627 11.9258 180.476 12.1992 180.476 12.5746ZM182.86 10.5845C183.086 10.5553 183.237 10.4605 183.314 10.3002C183.358 10.2127 183.379 10.0869 183.379 9.92291C183.379 9.58757 183.259 9.34518 183.019 9.19574C182.782 9.04265 182.441 8.96611 181.996 8.96611C181.482 8.96611 181.118 9.10462 180.903 9.38163C180.782 9.53472 180.704 9.76253 180.668 10.0651H179.749C179.767 9.34336 180.001 8.84218 180.449 8.56152C180.901 8.27722 181.424 8.13506 182.018 8.13506C182.707 8.13506 183.266 8.26628 183.697 8.52872C184.123 8.79115 184.336 9.19939 184.336 9.75342V13.1268C184.336 13.2289 184.356 13.3109 184.396 13.3728C184.44 13.4348 184.529 13.4658 184.664 13.4658C184.708 13.4658 184.757 13.464 184.812 13.4603C184.867 13.453 184.925 13.4439 184.987 13.433V14.1601C184.834 14.2039 184.717 14.2312 184.637 14.2422C184.557 14.2531 184.447 14.2586 184.309 14.2586C183.97 14.2586 183.724 14.1383 183.571 13.8977C183.491 13.7701 183.434 13.5897 183.401 13.3564C183.201 13.6189 182.913 13.8467 182.537 14.0399C182.162 14.233 181.748 14.3296 181.296 14.3296C180.753 14.3296 180.309 14.1656 179.962 13.8376C179.62 13.5059 179.448 13.0922 179.448 12.5965C179.448 12.0534 179.618 11.6324 179.957 11.3335C180.296 11.0346 180.74 10.8505 181.291 10.7813L182.86 10.5845ZM185.507 8.27722H186.442V9.10826C186.719 8.76564 187.012 8.5196 187.322 8.37016C187.632 8.22072 187.976 8.146 188.355 8.146C189.186 8.146 189.748 8.43577 190.039 9.01532C190.2 9.33243 190.28 9.78622 190.28 10.3767V14.1328H189.279V10.4423C189.279 10.0851 189.226 9.79716 189.121 9.57846C188.946 9.21397 188.629 9.03172 188.169 9.03172C187.936 9.03172 187.745 9.05541 187.595 9.1028C187.325 9.18298 187.089 9.34336 186.884 9.58393C186.72 9.77711 186.613 9.97758 186.562 10.1853C186.514 10.3895 186.491 10.6829 186.491 11.0656V14.1328H185.507V8.27722ZM196.399 8.146C196.814 8.146 197.217 8.24441 197.607 8.44124C197.997 8.63442 198.294 8.88592 198.498 9.19574C198.695 9.49098 198.826 9.83543 198.892 10.2291C198.95 10.4988 198.979 10.9289 198.979 11.5194H194.687C194.706 12.1135 194.846 12.591 195.108 12.9519C195.371 13.3091 195.777 13.4877 196.328 13.4877C196.841 13.4877 197.252 13.3182 197.558 12.9792C197.733 12.7824 197.857 12.5546 197.929 12.2958H198.897C198.872 12.5108 198.786 12.7514 198.64 13.0175C198.498 13.2799 198.338 13.4949 198.159 13.6626C197.86 13.9542 197.49 14.151 197.049 14.2531C196.812 14.3114 196.544 14.3406 196.246 14.3406C195.517 14.3406 194.899 14.0763 194.392 13.5478C193.885 13.0156 193.632 12.2721 193.632 11.3171C193.632 10.3767 193.887 9.61309 194.398 9.02625C194.908 8.43942 195.575 8.146 196.399 8.146ZM197.968 10.7376C197.928 10.3111 197.835 9.97029 197.689 9.71515C197.419 9.2413 196.969 9.00438 196.338 9.00438C195.886 9.00438 195.507 9.1684 195.201 9.49645C194.895 9.82085 194.733 10.2345 194.715 10.7376H197.968ZM199.187 8.27722H200.461L201.806 10.3384L203.168 8.27722L204.365 8.30455L202.391 11.1312L204.453 14.1328H203.195L201.741 11.9349L200.33 14.1328H199.084L201.145 11.1312L199.187 8.27722ZM207.367 13.4713C207.826 13.4713 208.207 13.2799 208.51 12.8972C208.816 12.5108 208.969 11.9349 208.969 11.1695C208.969 10.7029 208.902 10.302 208.767 9.96665C208.512 9.32149 208.045 8.99891 207.367 8.99891C206.686 8.99891 206.219 9.33972 205.967 10.0213C205.833 10.3858 205.765 10.8487 205.765 11.41C205.765 11.862 205.833 12.2466 205.967 12.5637C206.223 13.1687 206.689 13.4713 207.367 13.4713ZM204.819 8.30455H205.776V9.08093C205.973 8.81484 206.188 8.60891 206.421 8.46311C206.753 8.24441 207.143 8.13506 207.591 8.13506C208.255 8.13506 208.818 8.39021 209.281 8.9005C209.744 9.40715 209.975 10.1325 209.975 11.0765C209.975 12.3523 209.642 13.2635 208.975 13.8102C208.552 14.1565 208.06 14.3296 207.498 14.3296C207.057 14.3296 206.687 14.233 206.388 14.0399C206.213 13.9305 206.018 13.7428 205.803 13.4767V16.4674H204.819V8.30455ZM213.119 8.146C213.535 8.146 213.938 8.24441 214.328 8.44124C214.718 8.63442 215.015 8.88592 215.219 9.19574C215.416 9.49098 215.547 9.83543 215.612 10.2291C215.671 10.4988 215.7 10.9289 215.7 11.5194H211.408C211.426 12.1135 211.567 12.591 211.829 12.9519C212.091 13.3091 212.498 13.4877 213.048 13.4877C213.562 13.4877 213.972 13.3182 214.278 12.9792C214.453 12.7824 214.577 12.5546 214.65 12.2958H215.618C215.592 12.5108 215.507 12.7514 215.361 13.0175C215.219 13.2799 215.058 13.4949 214.88 13.6626C214.581 13.9542 214.211 14.151 213.77 14.2531C213.533 14.3114 213.265 14.3406 212.966 14.3406C212.237 14.3406 211.619 14.0763 211.113 13.5478C210.606 13.0156 210.353 12.2721 210.353 11.3171C210.353 10.3767 210.608 9.61309 211.118 9.02625C211.628 8.43942 212.296 8.146 213.119 8.146ZM214.688 10.7376C214.648 10.3111 214.555 9.97029 214.41 9.71515C214.14 9.2413 213.69 9.00438 213.059 9.00438C212.607 9.00438 212.228 9.1684 211.922 9.49645C211.616 9.82085 211.454 10.2345 211.435 10.7376H214.688ZM216.493 8.27722H217.428V9.28869C217.505 9.09186 217.692 8.85312 217.991 8.57246C218.29 8.28815 218.634 8.146 219.025 8.146C219.043 8.146 219.074 8.14782 219.117 8.15147C219.161 8.15511 219.236 8.1624 219.342 8.17334V9.21214C219.283 9.20121 219.229 9.19392 219.178 9.19027C219.13 9.18663 219.077 9.18481 219.019 9.18481C218.523 9.18481 218.142 9.34518 217.876 9.66594C217.61 9.98305 217.477 10.3494 217.477 10.7649V14.1328H216.493V8.27722ZM219.747 8.30455H220.747V14.1328H219.747V8.30455ZM219.747 6.10119H220.747V7.21654H219.747V6.10119ZM221.792 8.27722H222.765V9.10826C222.998 8.82031 223.21 8.61073 223.399 8.47951C223.724 8.25717 224.092 8.146 224.504 8.146C224.97 8.146 225.346 8.26081 225.63 8.49045C225.79 8.62166 225.936 8.81484 226.067 9.06999C226.286 8.75653 226.543 8.52507 226.838 8.37563C227.134 8.22254 227.465 8.146 227.833 8.146C228.621 8.146 229.156 8.4303 229.441 8.99891C229.594 9.30509 229.67 9.71697 229.67 10.2345V14.1328H228.648V10.0651C228.648 9.67505 228.55 9.40715 228.353 9.26135C228.16 9.11555 227.923 9.04265 227.642 9.04265C227.256 9.04265 226.922 9.17205 226.641 9.43084C226.364 9.68963 226.226 10.1216 226.226 10.7266V14.1328H225.225V10.3111C225.225 9.91379 225.178 9.62402 225.083 9.44177C224.934 9.1684 224.655 9.03172 224.247 9.03172C223.875 9.03172 223.536 9.17569 223.23 9.46364C222.927 9.75159 222.776 10.2728 222.776 11.0273V14.1328H221.792V8.27722ZM233.11 8.146C233.525 8.146 233.928 8.24441 234.318 8.44124C234.708 8.63442 235.005 8.88592 235.209 9.19574C235.406 9.49098 235.537 9.83543 235.603 10.2291C235.661 10.4988 235.69 10.9289 235.69 11.5194H231.399C231.417 12.1135 231.557 12.591 231.82 12.9519C232.082 13.3091 232.488 13.4877 233.039 13.4877C233.553 13.4877 233.963 13.3182 234.269 12.9792C234.444 12.7824 234.568 12.5546 234.641 12.2958H235.608C235.583 12.5108 235.497 12.7514 235.352 13.0175C235.209 13.2799 235.049 13.4949 234.87 13.6626C234.571 13.9542 234.202 14.151 233.76 14.2531C233.524 14.3114 233.256 14.3406 232.957 14.3406C232.228 14.3406 231.61 14.0763 231.103 13.5478C230.597 13.0156 230.343 12.2721 230.343 11.3171C230.343 10.3767 230.599 9.61309 231.109 9.02625C231.619 8.43942 232.286 8.146 233.11 8.146ZM234.679 10.7376C234.639 10.3111 234.546 9.97029 234.4 9.71515C234.13 9.2413 233.68 9.00438 233.05 9.00438C232.598 9.00438 232.219 9.1684 231.913 9.49645C231.606 9.82085 231.444 10.2345 231.426 10.7376H234.679ZM236.456 8.27722H237.391V9.10826C237.668 8.76564 237.962 8.5196 238.272 8.37016C238.581 8.22072 238.926 8.146 239.305 8.146C240.136 8.146 240.697 8.43577 240.989 9.01532C241.149 9.33243 241.229 9.78622 241.229 10.3767V14.1328H240.229V10.4423C240.229 10.0851 240.176 9.79716 240.07 9.57846C239.895 9.21397 239.578 9.03172 239.119 9.03172C238.886 9.03172 238.694 9.05541 238.545 9.1028C238.275 9.18298 238.038 9.34336 237.834 9.58393C237.67 9.77711 237.563 9.97758 237.512 10.1853C237.464 10.3895 237.44 10.6829 237.44 11.0656V14.1328H236.456V8.27722ZM242.438 6.64246H243.433V8.27722H244.368V9.08093H243.433V12.9026C243.433 13.1068 243.502 13.2434 243.641 13.3127C243.718 13.3528 243.845 13.3728 244.024 13.3728C244.071 13.3728 244.122 13.3728 244.177 13.3728C244.231 13.3692 244.295 13.3637 244.368 13.3564V14.1328C244.255 14.1656 244.137 14.1893 244.013 14.2039C243.892 14.2185 243.761 14.2258 243.619 14.2258C243.16 14.2258 242.848 14.1091 242.684 13.8758C242.52 13.6389 242.438 13.3327 242.438 12.9573V9.08093H241.645V8.27722H242.438V6.64246ZM247.502 6.07385H248.459V8.98798C248.674 8.70732 248.931 8.49409 249.23 8.34829C249.528 8.19885 249.853 8.12413 250.203 8.12413C250.932 8.12413 251.522 8.37563 251.974 8.87863C252.43 9.37799 252.658 10.1161 252.658 11.0929C252.658 12.0187 252.433 12.7878 251.985 13.4002C251.537 14.0125 250.915 14.3187 250.121 14.3187C249.676 14.3187 249.301 14.2112 248.994 13.9961C248.812 13.8686 248.617 13.6644 248.409 13.3838V14.1328H247.502V6.07385ZM250.061 13.4494C250.593 13.4494 250.99 13.238 251.252 12.8152C251.519 12.3924 251.652 11.8347 251.652 11.1421C251.652 10.5261 251.519 10.0159 251.252 9.61126C250.99 9.20668 250.602 9.00438 250.088 9.00438C249.64 9.00438 249.246 9.17023 248.907 9.50192C248.572 9.83361 248.404 10.3803 248.404 11.1421C248.404 11.6925 248.473 12.139 248.612 12.4817C248.871 13.1268 249.353 13.4494 250.061 13.4494ZM257.021 8.27722H258.109C257.971 8.65265 257.663 9.50921 257.185 10.8469C256.828 11.8529 256.529 12.673 256.288 13.3072C255.72 14.8017 255.319 15.7129 255.086 16.0409C254.852 16.369 254.451 16.533 253.883 16.533C253.744 16.533 253.637 16.5275 253.56 16.5166C253.487 16.5057 253.396 16.4856 253.287 16.4565V15.5598C253.458 15.6072 253.582 15.6364 253.659 15.6473C253.735 15.6582 253.803 15.6637 253.861 15.6637C254.043 15.6637 254.176 15.6327 254.26 15.5707C254.347 15.5124 254.42 15.4395 254.479 15.352C254.497 15.3229 254.563 15.1734 254.676 14.9037C254.789 14.634 254.871 14.4335 254.922 14.3023L252.756 8.27722H253.872L255.441 13.0448L257.021 8.27722ZM259.033 8.35376H260.176V9.54566H259.033V8.35376ZM259.033 12.9409H260.176V14.1328H259.033V12.9409ZM264.332 8.27722L265.896 13.0448L267.531 8.27722H268.608L266.399 14.1328H265.349L263.19 8.27722H264.332ZM269.002 8.30455H270.002V14.1328H269.002V8.30455ZM269.002 6.10119H270.002V7.21654H269.002V6.10119ZM271.632 12.2958C271.661 12.6238 271.743 12.8753 271.878 13.0503C272.126 13.3674 272.556 13.5259 273.168 13.5259C273.533 13.5259 273.854 13.4476 274.131 13.2908C274.408 13.1305 274.546 12.8844 274.546 12.5527C274.546 12.3012 274.435 12.1099 274.213 11.9787C274.071 11.8985 273.79 11.8055 273.371 11.6998L272.589 11.503C272.09 11.3791 271.721 11.2406 271.485 11.0875C271.062 10.8214 270.85 10.4532 270.85 9.98305C270.85 9.42902 271.049 8.98069 271.446 8.63807C271.847 8.29544 272.385 8.12413 273.059 8.12413C273.941 8.12413 274.577 8.38292 274.967 8.9005C275.211 9.22855 275.33 9.5821 275.323 9.96118H274.393C274.375 9.73884 274.297 9.53654 274.158 9.3543C273.932 9.09551 273.54 8.96611 272.983 8.96611C272.611 8.96611 272.328 9.03719 272.135 9.17934C271.946 9.32149 271.851 9.50921 271.851 9.74248C271.851 9.99763 271.977 10.2017 272.228 10.3548C272.374 10.446 272.589 10.5261 272.873 10.5954L273.524 10.754C274.231 10.9253 274.705 11.0911 274.945 11.2515C275.328 11.503 275.519 11.8985 275.519 12.4379C275.519 12.9591 275.321 13.4093 274.924 13.7884C274.53 14.1674 273.928 14.357 273.119 14.357C272.248 14.357 271.63 14.1601 271.266 13.7665C270.905 13.3692 270.712 12.879 270.686 12.2958H271.632ZM277.182 8.27722V12.1645C277.182 12.4634 277.229 12.7076 277.324 12.8972C277.499 13.2471 277.825 13.422 278.303 13.422C278.988 13.422 279.455 13.1159 279.702 12.5035C279.837 12.1755 279.905 11.7253 279.905 11.1531V8.27722H280.889V14.1328H279.959L279.97 13.269C279.843 13.4913 279.684 13.679 279.495 13.8321C279.119 14.1383 278.664 14.2914 278.128 14.2914C277.293 14.2914 276.725 14.0125 276.422 13.4549C276.258 13.156 276.176 12.7568 276.176 12.2575V8.27722H277.182ZM282.737 12.5746C282.737 12.8589 282.841 13.0831 283.049 13.2471C283.257 13.4111 283.503 13.4931 283.787 13.4931C284.133 13.4931 284.469 13.4129 284.793 13.2526C285.34 12.9865 285.613 12.5509 285.613 11.9458V11.1531C285.493 11.2296 285.338 11.2934 285.148 11.3444C284.959 11.3955 284.773 11.4319 284.591 11.4538L283.995 11.5303C283.638 11.5777 283.37 11.6524 283.191 11.7545C282.889 11.9258 282.737 12.1992 282.737 12.5746ZM285.121 10.5845C285.347 10.5553 285.498 10.4605 285.575 10.3002C285.619 10.2127 285.641 10.0869 285.641 9.92291C285.641 9.58757 285.52 9.34518 285.28 9.19574C285.043 9.04265 284.702 8.96611 284.257 8.96611C283.743 8.96611 283.379 9.10462 283.164 9.38163C283.044 9.53472 282.965 9.76253 282.929 10.0651H282.01C282.028 9.34336 282.262 8.84218 282.71 8.56152C283.162 8.27722 283.685 8.13506 284.279 8.13506C284.968 8.13506 285.528 8.26628 285.958 8.52872C286.384 8.79115 286.597 9.19939 286.597 9.75342V13.1268C286.597 13.2289 286.617 13.3109 286.657 13.3728C286.701 13.4348 286.791 13.4658 286.925 13.4658C286.969 13.4658 287.018 13.464 287.073 13.4603C287.128 13.453 287.186 13.4439 287.248 13.433V14.1601C287.095 14.2039 286.978 14.2312 286.898 14.2422C286.818 14.2531 286.708 14.2586 286.57 14.2586C286.231 14.2586 285.985 14.1383 285.832 13.8977C285.752 13.7701 285.695 13.5897 285.662 13.3564C285.462 13.6189 285.174 13.8467 284.799 14.0399C284.423 14.233 284.009 14.3296 283.557 14.3296C283.014 14.3296 282.57 14.1656 282.223 13.8376C281.881 13.5059 281.709 13.0922 281.709 12.5965C281.709 12.0534 281.879 11.6324 282.218 11.3335C282.557 11.0346 283.002 10.8505 283.552 10.7813L285.121 10.5845ZM287.795 6.10119H288.779V14.1328H287.795V6.10119ZM293.078 10.6337H301.634V11.4374H293.078V10.6337ZM307.91 12.5428L307.932 12.5876L307.585 12.9347C307.16 13.3602 306.816 13.6849 306.555 13.9089C306.301 14.1253 306.096 14.2336 305.939 14.2336C305.827 14.2336 305.738 14.1813 305.67 14.0768C305.603 13.9649 305.57 13.7596 305.57 13.461C305.57 13.252 305.577 13.084 305.592 12.9571L306.701 8.99327L305.603 9.39637L305.581 9.34039L307.742 8.0639H307.809L306.197 13.5841L307.91 12.5428ZM307.686 7.17932C307.537 7.17932 307.413 7.13453 307.316 7.04495C307.219 6.94791 307.171 6.82474 307.171 6.67544C307.171 6.48882 307.238 6.33206 307.372 6.20516C307.514 6.07079 307.682 6.0036 307.876 6.0036C308.026 6.0036 308.145 6.04839 308.235 6.13797C308.324 6.22755 308.369 6.34699 308.369 6.49628C308.369 6.6829 308.298 6.8434 308.156 6.97777C308.022 7.11213 307.865 7.17932 307.686 7.17932ZM313.631 5.6229H313.642L311.548 13.6065L313.272 12.5764L313.295 12.61L312.948 12.9571C312.522 13.3826 312.179 13.7073 311.917 13.9313C311.664 14.1477 311.458 14.256 311.302 14.256C311.19 14.256 311.1 14.2037 311.033 14.0992C310.966 13.9872 310.932 13.782 310.932 13.4834C310.932 13.2744 310.94 13.1064 310.955 12.9795L311.861 9.31799H311.727C311.346 10.5422 311.033 11.4828 310.787 12.1397C310.54 12.7891 310.275 13.3042 309.992 13.6849C309.708 14.0656 309.387 14.256 309.029 14.256C308.723 14.256 308.495 14.1477 308.346 13.9313C308.204 13.7073 308.133 13.4013 308.133 13.0131C308.133 12.401 308.275 11.7142 308.558 10.9528C308.842 10.1914 309.219 9.54567 309.689 9.01567C310.167 8.4782 310.675 8.20946 311.212 8.20946C311.548 8.20946 311.843 8.26545 312.097 8.37742L312.645 6.17156L311.358 6.20516L311.38 6.13797L313.575 5.6005H313.642L313.631 5.6229ZM309.499 13.6065C309.656 13.6065 309.809 13.5095 309.958 13.3154C310.115 13.1139 310.324 12.6809 310.585 12.0165C310.854 11.3522 311.208 10.3444 311.649 8.99327C311.559 8.82158 311.44 8.69468 311.29 8.61256C311.149 8.53045 310.996 8.4894 310.831 8.4894C310.518 8.4894 310.223 8.732 309.947 9.21722C309.671 9.69497 309.447 10.2698 309.275 10.9416C309.111 11.6134 309.029 12.1994 309.029 12.6996C309.029 12.9832 309.066 13.2072 309.141 13.3714C309.223 13.5282 309.342 13.6065 309.499 13.6065ZM316.536 8.15348C316.961 8.15348 317.271 8.25799 317.465 8.467C317.659 8.67602 317.749 8.90369 317.734 9.15003C317.727 9.78454 317.417 10.2772 316.805 10.6281C316.193 10.9715 315.42 11.2178 314.487 11.3671C314.45 12.0165 314.55 12.554 314.789 12.9795C315.028 13.405 315.413 13.6177 315.943 13.6177C316.107 13.6177 316.245 13.5991 316.357 13.5618C316.469 13.517 316.577 13.4647 316.682 13.405C316.786 13.3378 316.864 13.2893 316.917 13.2594L316.973 13.3266C316.166 13.9387 315.625 14.2448 315.349 14.2448C314.849 14.2448 314.442 14.0694 314.129 13.7185C313.823 13.3677 313.669 12.875 313.669 12.2405C313.669 11.8896 313.718 11.5201 313.815 11.1319C313.979 10.4377 314.229 9.86666 314.565 9.41877C314.909 8.97088 315.26 8.64989 315.618 8.4558C315.984 8.25425 316.29 8.15348 316.536 8.15348ZM314.498 11.1991C314.827 11.1543 315.166 11.0648 315.517 10.9304C315.875 10.7886 316.181 10.5907 316.435 10.3369C316.689 10.0831 316.816 9.76961 316.816 9.39637C316.816 9.18736 316.764 9.0082 316.659 8.8589C316.555 8.70214 316.357 8.62376 316.066 8.62376C315.804 8.62376 315.539 8.75813 315.271 9.02686C315.002 9.2956 314.782 9.79574 314.61 10.5273C314.558 10.7288 314.52 10.9528 314.498 11.1991ZM323.099 12.5652L323.121 12.61L322.796 12.9347C322.371 13.3602 322.027 13.6849 321.766 13.9089C321.505 14.1328 321.292 14.2448 321.128 14.2448C321.016 14.2448 320.926 14.1925 320.859 14.088C320.792 13.9835 320.758 13.782 320.758 13.4834C320.758 13.2744 320.766 13.1064 320.781 12.9795L321.744 10.3034C321.871 9.93011 321.934 9.62405 321.934 9.38518C321.934 9.19109 321.897 9.04553 321.822 8.94848C321.755 8.84397 321.677 8.79172 321.587 8.79172C321.266 8.79172 320.848 9.31053 320.333 10.3481C319.818 11.3858 319.306 12.6473 318.799 14.1328H317.948L319.292 8.8925L317.69 9.85546L317.668 9.81067L318.015 9.46356C318.441 9.03806 318.78 8.71707 319.034 8.50059C319.295 8.27665 319.504 8.16467 319.661 8.16467C319.773 8.16467 319.863 8.22066 319.93 8.33263C319.997 8.43714 320.031 8.63869 320.031 8.93729C320.031 9.1463 320.023 9.31426 320.008 9.44116L318.888 13.0691H319.023C319.471 11.7702 319.975 10.6243 320.534 9.63152C321.094 8.63123 321.639 8.13108 322.169 8.13108C322.363 8.13108 322.524 8.20573 322.651 8.35503C322.778 8.50432 322.841 8.72827 322.841 9.02686C322.841 9.36278 322.759 9.75842 322.595 10.2138L321.374 13.5953L323.099 12.5652ZM326.914 8.63496C326.675 8.63496 326.257 8.59764 325.66 8.52299L324.204 13.6065L325.928 12.5652L325.951 12.61L325.592 12.9683C325.189 13.3789 324.857 13.6961 324.596 13.9201C324.335 14.144 324.122 14.256 323.958 14.256C323.846 14.256 323.756 14.2037 323.689 14.0992C323.622 13.9872 323.588 13.782 323.588 13.4834C323.588 13.2744 323.596 13.1064 323.611 12.9795L324.797 8.50059C324.394 8.41101 324.152 8.3513 324.07 8.32144L324.092 8.26545H324.887C325.029 8.11615 325.208 7.9146 325.425 7.6608C325.641 7.40699 325.831 7.17185 325.996 6.95537H326.04L325.727 8.26545H327.003L326.914 8.63496ZM329.003 12.5428L329.026 12.5876L328.678 12.9347C328.253 13.3602 327.91 13.6849 327.648 13.9089C327.394 14.1253 327.189 14.2336 327.032 14.2336C326.92 14.2336 326.831 14.1813 326.764 14.0768C326.697 13.9649 326.663 13.7596 326.663 13.461C326.663 13.252 326.67 13.084 326.685 12.9571L327.794 8.99327L326.697 9.39637L326.674 9.34039L328.835 8.0639H328.902L327.29 13.5841L329.003 12.5428ZM328.779 7.17932C328.63 7.17932 328.507 7.13453 328.41 7.04495C328.313 6.94791 328.264 6.82474 328.264 6.67544C328.264 6.48882 328.331 6.33206 328.466 6.20516C328.608 6.07079 328.775 6.0036 328.97 6.0036C329.119 6.0036 329.238 6.04839 329.328 6.13797C329.417 6.22755 329.462 6.34699 329.462 6.49628C329.462 6.6829 329.391 6.8434 329.25 6.97777C329.115 7.11213 328.958 7.17932 328.779 7.17932ZM332.72 8.63496C332.481 8.63496 332.063 8.59764 331.466 8.52299L330.01 13.6065L331.735 12.5652L331.757 12.61L331.399 12.9683C330.996 13.3789 330.664 13.6961 330.402 13.9201C330.141 14.144 329.928 14.256 329.764 14.256C329.652 14.256 329.563 14.2037 329.495 14.0992C329.428 13.9872 329.395 13.782 329.395 13.4834C329.395 13.2744 329.402 13.1064 329.417 12.9795L330.604 8.50059C330.201 8.41101 329.958 8.3513 329.876 8.32144L329.898 8.26545H330.693C330.835 8.11615 331.014 7.9146 331.231 7.6608C331.447 7.40699 331.638 7.17185 331.802 6.95537H331.847L331.533 8.26545H332.81L332.72 8.63496ZM336.298 8.26545H337.25C337.056 9.44489 336.638 10.6094 335.996 11.759C335.361 12.9086 334.507 13.9462 333.432 14.8718C332.364 15.8049 331.118 16.5216 329.692 17.0217L329.905 16.2043L329.961 16.1707C331.349 15.9094 332.536 15.3645 333.521 14.5359L333.723 8.92609L332.155 9.85546L332.133 9.81067C332.133 9.81067 332.245 9.6987 332.469 9.47475C332.872 9.06419 333.208 8.7432 333.477 8.51179C333.753 8.28038 333.973 8.16467 334.137 8.16467C334.219 8.16467 334.286 8.19453 334.339 8.25425C334.391 8.31397 334.432 8.43714 334.462 8.62376C334.499 8.80292 334.529 9.07538 334.551 9.44116L334.272 13.8193C334.921 13.0877 335.414 12.2442 335.75 11.2887C336.086 10.3332 336.257 9.34039 336.265 8.31024L336.298 8.26545Z" fill="white"/>
</svg>
