<svg width="28" height="28" viewBox="0 0 28 28" fill="none" xmlns="http://www.w3.org/2000/svg">
<path fill-rule="evenodd" clip-rule="evenodd" d="M0.667969 14.0013C0.667969 6.6373 6.6373 0.667969 14.0013 0.667969C21.3653 0.667969 27.3346 6.6373 27.3346 14.0013C27.3346 21.3653 21.3653 27.3346 14.0013 27.3346C6.6373 27.3346 0.667969 21.3653 0.667969 14.0013ZM15.3346 8.66797C15.3346 8.31435 15.1942 7.97521 14.9441 7.72516C14.6941 7.47511 14.3549 7.33464 14.0013 7.33464C13.6477 7.33464 13.3085 7.47511 13.0585 7.72516C12.8084 7.97521 12.668 8.31435 12.668 8.66797C12.668 9.02159 12.8084 9.36073 13.0585 9.61078C13.3085 9.86083 13.6477 10.0013 14.0013 10.0013C14.3549 10.0013 14.6941 9.86083 14.9441 9.61078C15.1942 9.36073 15.3346 9.02159 15.3346 8.66797ZM14.0013 20.668C14.3549 20.668 14.6941 20.5275 14.9441 20.2774C15.1942 20.0274 15.3346 19.6883 15.3346 19.3346V14.0013C15.3346 13.6477 15.1942 13.3085 14.9441 13.0585C14.6941 12.8084 14.3549 12.668 14.0013 12.668C13.6477 12.668 13.3085 12.8084 13.0585 13.0585C12.8084 13.3085 12.668 13.6477 12.668 14.0013V19.3346C12.668 19.6883 12.8084 20.0274 13.0585 20.2774C13.3085 20.5275 13.6477 20.668 14.0013 20.668Z" fill="white"/>
</svg>
