<svg width="60" height="60" viewBox="0 0 60 60" fill="none" xmlns="http://www.w3.org/2000/svg">
<circle cx="30" cy="30" r="29" stroke="white" stroke-width="2"/>
<path d="M39.3333 18C40.0406 18 40.7189 18.281 41.219 18.781C41.719 19.2811 42 19.9594 42 20.6667V39.3333C42 40.0406 41.719 40.7189 41.219 41.219C40.7189 41.719 40.0406 42 39.3333 42H20.6667C19.9594 42 19.2811 41.719 18.781 41.219C18.281 40.7189 18 40.0406 18 39.3333V20.6667C18 19.9594 18.281 19.2811 18.781 18.781C19.2811 18.281 19.9594 18 20.6667 18H39.3333ZM38.6667 38.6667V31.6C38.6667 30.4472 38.2087 29.3416 37.3936 28.5264C36.5784 27.7113 35.4728 27.2533 34.32 27.2533C33.1867 27.2533 31.8667 27.9467 31.2267 28.9867V27.5067H27.5067V38.6667H31.2267V32.0933C31.2267 31.0667 32.0533 30.2267 33.08 30.2267C33.5751 30.2267 34.0499 30.4233 34.3999 30.7734C34.75 31.1235 34.9467 31.5983 34.9467 32.0933V38.6667H38.6667ZM23.1733 25.4133C23.7674 25.4133 24.3372 25.1773 24.7573 24.7573C25.1773 24.3372 25.4133 23.7674 25.4133 23.1733C25.4133 21.9333 24.4133 20.92 23.1733 20.92C22.5757 20.92 22.0026 21.1574 21.58 21.58C21.1574 22.0026 20.92 22.5757 20.92 23.1733C20.92 24.4133 21.9333 25.4133 23.1733 25.4133ZM25.0267 38.6667V27.5067H21.3333V38.6667H25.0267Z" fill="white"/>
</svg>
