<svg width="60" height="60" viewBox="0 0 60 60" fill="none" xmlns="http://www.w3.org/2000/svg">
<circle cx="30" cy="30" r="29" stroke="white" stroke-width="2"/>
<path d="M39.332 47.3346C37.8654 47.3346 36.6098 46.8124 35.5654 45.768C34.5209 44.7235 33.9987 43.468 33.9987 42.0013V36.0013C33.9987 35.068 34.3209 34.2791 34.9654 33.6346C35.6098 32.9902 36.3987 32.668 37.332 32.668C38.2654 32.668 39.0543 32.9902 39.6987 33.6346C40.3431 34.2791 40.6654 35.068 40.6654 36.0013V42.0013H37.9987V36.0013C37.9987 35.8235 37.932 35.668 37.7987 35.5346C37.6654 35.4013 37.5098 35.3346 37.332 35.3346C37.1543 35.3346 36.9987 35.4013 36.8654 35.5346C36.732 35.668 36.6654 35.8235 36.6654 36.0013V42.0013C36.6654 42.7346 36.9267 43.3626 37.4494 43.8853C37.972 44.408 38.5996 44.6689 39.332 44.668C40.0645 44.6671 40.6925 44.4062 41.216 43.8853C41.7396 43.3644 42.0005 42.7364 41.9987 42.0013V36.668H44.6654V42.0013C44.6654 43.468 44.1431 44.7235 43.0987 45.768C42.0543 46.8124 40.7987 47.3346 39.332 47.3346ZM17.9987 42.0013C17.2654 42.0013 16.6378 41.7404 16.116 41.2186C15.5943 40.6969 15.3329 40.0689 15.332 39.3346V23.3346C15.332 22.6013 15.5934 21.9737 16.116 21.452C16.6387 20.9302 17.2663 20.6689 17.9987 20.668H39.332C40.0654 20.668 40.6934 20.9293 41.216 21.452C41.7387 21.9746 41.9996 22.6022 41.9987 23.3346V31.3346H37.332C36.0431 31.3346 34.9431 31.7902 34.032 32.7013C33.1209 33.6124 32.6654 34.7124 32.6654 36.0013V42.0013H17.9987ZM28.6654 32.668L39.332 26.0013V23.3346L28.6654 30.0013L17.9987 23.3346V26.0013L28.6654 32.668Z" fill="white"/>
</svg>
