<svg width="34" height="42" viewBox="0 0 34 42" fill="none" xmlns="http://www.w3.org/2000/svg">
<path d="M33.5 16.5V25.5C33.5 29.8761 31.7616 34.0729 28.6673 37.1673C25.5729 40.2616 21.3761 42 17 42C12.6239 42 8.42709 40.2616 5.33274 37.1673C2.23839 34.0729 0.5 29.8761 0.5 25.5V9C0.5 8.20435 0.81607 7.44129 1.37868 6.87868C1.94129 6.31607 2.70435 6 3.5 6C4.29565 6 5.05871 6.31607 5.62132 6.87868C6.18393 7.44129 6.5 8.20435 6.5 9V19.5C6.5 19.8978 6.65804 20.2794 6.93934 20.5607C7.22064 20.842 7.60218 21 8 21C8.39782 21 8.77935 20.842 9.06066 20.5607C9.34196 20.2794 9.5 19.8978 9.5 19.5V3C9.5 2.20435 9.81607 1.44129 10.3787 0.87868C10.9413 0.31607 11.7044 0 12.5 0C13.2956 0 14.0587 0.31607 14.6213 0.87868C15.1839 1.44129 15.5 2.20435 15.5 3V18C15.5 18.3978 15.658 18.7794 15.9393 19.0607C16.2206 19.342 16.6022 19.5 17 19.5C17.3978 19.5 17.7794 19.342 18.0607 19.0607C18.342 18.7794 18.5 18.3978 18.5 18V6C18.5 5.20435 18.8161 4.44129 19.3787 3.87868C19.9413 3.31607 20.7044 3 21.5 3C22.2956 3 23.0587 3.31607 23.6213 3.87868C24.1839 4.44129 24.5 5.20435 24.5 6V21.1256C22.4041 21.4829 20.502 22.5695 19.1296 24.1934C17.7572 25.8172 17.0029 27.8739 17 30C17 30.3978 17.158 30.7794 17.4393 31.0607C17.7206 31.342 18.1022 31.5 18.5 31.5C18.8978 31.5 19.2794 31.342 19.5607 31.0607C19.842 30.7794 20 30.3978 20 30C20 28.4087 20.6321 26.8826 21.7574 25.7574C22.8826 24.6321 24.4087 24 26 24C26.3978 24 26.7794 23.842 27.0607 23.5607C27.342 23.2794 27.5 22.8978 27.5 22.5V16.5C27.5 15.7044 27.8161 14.9413 28.3787 14.3787C28.9413 13.8161 29.7044 13.5 30.5 13.5C31.2956 13.5 32.0587 13.8161 32.6213 14.3787C33.1839 14.9413 33.5 15.7044 33.5 16.5Z" fill="#8C1B17"/>
</svg>
