<svg width="303" height="26" viewBox="0 0 303 26" fill="none" xmlns="http://www.w3.org/2000/svg">
<path d="M6.77344 6.16797C7.66406 6.16797 8.52734 6.37891 9.36328 6.80078C10.1992 7.21484 10.8359 7.75391 11.2734 8.41797C11.6953 9.05078 11.9766 9.78906 12.1172 10.6328C12.2422 11.2109 12.3047 12.1328 12.3047 13.3984H3.10547C3.14453 14.6719 3.44531 15.6953 4.00781 16.4688C4.57031 17.2344 5.44141 17.6172 6.62109 17.6172C7.72266 17.6172 8.60156 17.2539 9.25781 16.5273C9.63281 16.1055 9.89844 15.6172 10.0547 15.0625H12.1289C12.0742 15.5234 11.8906 16.0391 11.5781 16.6094C11.2734 17.1719 10.9297 17.6328 10.5469 17.9922C9.90625 18.6172 9.11328 19.0391 8.16797 19.2578C7.66016 19.3828 7.08594 19.4453 6.44531 19.4453C4.88281 19.4453 3.55859 18.8789 2.47266 17.7461C1.38672 16.6055 0.84375 15.0117 0.84375 12.9648C0.84375 10.9492 1.39062 9.3125 2.48438 8.05469C3.57812 6.79688 5.00781 6.16797 6.77344 6.16797ZM10.1367 11.7227C10.0508 10.8086 9.85156 10.0781 9.53906 9.53125C8.96094 8.51562 7.99609 8.00781 6.64453 8.00781C5.67578 8.00781 4.86328 8.35938 4.20703 9.0625C3.55078 9.75781 3.20312 10.6445 3.16406 11.7227H10.1367ZM12.7509 6.44922H15.4814L18.3642 10.8672L21.2822 6.44922L23.8486 6.50781L19.6181 12.5664L24.0361 19H21.3408L18.2236 14.2891L15.2002 19H12.5283L16.9462 12.5664L12.7509 6.44922ZM30.2831 17.582C31.2675 17.582 32.0839 17.1719 32.7323 16.3516C33.3886 15.5234 33.7167 14.2891 33.7167 12.6484C33.7167 11.6484 33.5722 10.7891 33.2831 10.0703C32.7362 8.6875 31.7362 7.99609 30.2831 7.99609C28.8222 7.99609 27.8222 8.72656 27.2831 10.1875C26.9941 10.9688 26.8495 11.9609 26.8495 13.1641C26.8495 14.1328 26.9941 14.957 27.2831 15.6367C27.83 16.9336 28.83 17.582 30.2831 17.582ZM24.8222 6.50781H26.873V8.17188C27.2948 7.60156 27.7558 7.16016 28.2558 6.84766C28.9667 6.37891 29.8027 6.14453 30.7636 6.14453C32.1855 6.14453 33.3925 6.69141 34.3847 7.78516C35.3769 8.87109 35.873 10.4258 35.873 12.4492C35.873 15.1836 35.1581 17.1367 33.7284 18.3086C32.8222 19.0508 31.7675 19.4219 30.5644 19.4219C29.6191 19.4219 28.8261 19.2148 28.1855 18.8008C27.8105 18.5664 27.3925 18.1641 26.9316 17.5938V24.0039H24.8222V6.50781ZM42.6122 6.16797C43.5028 6.16797 44.3661 6.37891 45.202 6.80078C46.038 7.21484 46.6747 7.75391 47.1122 8.41797C47.5341 9.05078 47.8153 9.78906 47.9559 10.6328C48.0809 11.2109 48.1434 12.1328 48.1434 13.3984H38.9442C38.9833 14.6719 39.2841 15.6953 39.8466 16.4688C40.4091 17.2344 41.2802 17.6172 42.4598 17.6172C43.5614 17.6172 44.4403 17.2539 45.0966 16.5273C45.4716 16.1055 45.7372 15.6172 45.8934 15.0625H47.9677C47.913 15.5234 47.7294 16.0391 47.4169 16.6094C47.1122 17.1719 46.7684 17.6328 46.3856 17.9922C45.745 18.6172 44.952 19.0391 44.0067 19.2578C43.4989 19.3828 42.9247 19.4453 42.2841 19.4453C40.7216 19.4453 39.3973 18.8789 38.3114 17.7461C37.2255 16.6055 36.6825 15.0117 36.6825 12.9648C36.6825 10.9492 37.2294 9.3125 38.3231 8.05469C39.4169 6.79688 40.8466 6.16797 42.6122 6.16797ZM45.9755 11.7227C45.8895 10.8086 45.6903 10.0781 45.3778 9.53125C44.7997 8.51562 43.8348 8.00781 42.4833 8.00781C41.5145 8.00781 40.702 8.35938 40.0458 9.0625C39.3895 9.75781 39.0419 10.6445 39.0028 11.7227H45.9755ZM49.8436 6.44922H51.8475V8.61719C52.0116 8.19531 52.4139 7.68359 53.0545 7.08203C53.6952 6.47266 54.4334 6.16797 55.2694 6.16797C55.3084 6.16797 55.3748 6.17187 55.4686 6.17969C55.5623 6.1875 55.7225 6.20312 55.9491 6.22656V8.45312C55.8241 8.42969 55.7069 8.41406 55.5975 8.40625C55.4959 8.39844 55.3827 8.39453 55.2577 8.39453C54.1952 8.39453 53.3787 8.73828 52.8084 9.42578C52.2381 10.1055 51.953 10.8906 51.953 11.7812V19H49.8436V6.44922ZM56.8172 6.50781H58.9617V19H56.8172V6.50781ZM56.8172 1.78516H58.9617V4.17578H56.8172V1.78516ZM61.2009 6.44922H63.2869V8.23047C63.7869 7.61328 64.24 7.16406 64.6463 6.88281C65.3416 6.40625 66.1306 6.16797 67.0134 6.16797C68.0134 6.16797 68.8181 6.41406 69.4275 6.90625C69.7713 7.1875 70.0838 7.60156 70.365 8.14844C70.8338 7.47656 71.3845 6.98047 72.0173 6.66016C72.6502 6.33203 73.3611 6.16797 74.1502 6.16797C75.8377 6.16797 76.9861 6.77734 77.5955 7.99609C77.9236 8.65234 78.0877 9.53516 78.0877 10.6445V19H75.8963V10.2812C75.8963 9.44531 75.6853 8.87109 75.2634 8.55859C74.8494 8.24609 74.3416 8.08984 73.74 8.08984C72.9119 8.08984 72.197 8.36719 71.5955 8.92188C71.0017 9.47656 70.7048 10.4023 70.7048 11.6992V19H68.5603V10.8086C68.5603 9.95703 68.4588 9.33594 68.2556 8.94531C67.9353 8.35938 67.3377 8.06641 66.4627 8.06641C65.6658 8.06641 64.9392 8.375 64.283 8.99219C63.6345 9.60938 63.3103 10.7266 63.3103 12.3438V19H61.2009V6.44922ZM85.4597 6.16797C86.3503 6.16797 87.2136 6.37891 88.0495 6.80078C88.8855 7.21484 89.5222 7.75391 89.9597 8.41797C90.3816 9.05078 90.6628 9.78906 90.8034 10.6328C90.9284 11.2109 90.9909 12.1328 90.9909 13.3984H81.7917C81.8308 14.6719 82.1316 15.6953 82.6941 16.4688C83.2566 17.2344 84.1277 17.6172 85.3073 17.6172C86.4089 17.6172 87.2878 17.2539 87.9441 16.5273C88.3191 16.1055 88.5847 15.6172 88.7409 15.0625H90.8152C90.7605 15.5234 90.5769 16.0391 90.2644 16.6094C89.9597 17.1719 89.6159 17.6328 89.2331 17.9922C88.5925 18.6172 87.7995 19.0391 86.8542 19.2578C86.3464 19.3828 85.7722 19.4453 85.1316 19.4453C83.5691 19.4453 82.2448 18.8789 81.1589 17.7461C80.073 16.6055 79.53 15.0117 79.53 12.9648C79.53 10.9492 80.0769 9.3125 81.1706 8.05469C82.2644 6.79688 83.6941 6.16797 85.4597 6.16797ZM88.823 11.7227C88.737 10.8086 88.5378 10.0781 88.2253 9.53125C87.6472 8.51562 86.6823 8.00781 85.3308 8.00781C84.362 8.00781 83.5495 8.35938 82.8933 9.0625C82.237 9.75781 81.8894 10.6445 81.8503 11.7227H88.823ZM92.6325 6.44922H94.6364V8.23047C95.2302 7.49609 95.8591 6.96875 96.5231 6.64844C97.1872 6.32813 97.9255 6.16797 98.738 6.16797C100.519 6.16797 101.722 6.78906 102.347 8.03125C102.691 8.71094 102.863 9.68359 102.863 10.9492V19H100.718V11.0898C100.718 10.3242 100.605 9.70703 100.379 9.23828C100.004 8.45703 99.3239 8.06641 98.3395 8.06641C97.8395 8.06641 97.4294 8.11719 97.1091 8.21875C96.5309 8.39062 96.0231 8.73438 95.5856 9.25C95.2341 9.66406 95.0036 10.0938 94.8942 10.5391C94.7927 10.9766 94.7419 11.6055 94.7419 12.4258V19H92.6325V6.44922ZM105.454 2.94531H107.587V6.44922H109.59V8.17188H107.587V16.3633C107.587 16.8008 107.735 17.0938 108.032 17.2422C108.196 17.3281 108.469 17.3711 108.852 17.3711C108.954 17.3711 109.063 17.3711 109.18 17.3711C109.298 17.3633 109.434 17.3516 109.59 17.3359V19C109.348 19.0703 109.094 19.1211 108.829 19.1523C108.571 19.1836 108.29 19.1992 107.985 19.1992C107.001 19.1992 106.333 18.9492 105.981 18.4492C105.63 17.9414 105.454 17.2852 105.454 16.4805V8.17188H103.755V6.44922H105.454V2.94531ZM116.307 1.72656H118.358V7.97266C118.819 7.37109 119.37 6.91406 120.01 6.60156C120.651 6.28125 121.346 6.12109 122.096 6.12109C123.659 6.12109 124.924 6.66016 125.893 7.73828C126.87 8.80859 127.358 10.3906 127.358 12.4844C127.358 14.4688 126.878 16.1172 125.917 17.4297C124.956 18.7422 123.624 19.3984 121.92 19.3984C120.967 19.3984 120.163 19.168 119.506 18.707C119.116 18.4336 118.698 17.9961 118.253 17.3945V19H116.307V1.72656ZM121.792 17.5352C122.932 17.5352 123.784 17.082 124.346 16.1758C124.917 15.2695 125.202 14.0742 125.202 12.5898C125.202 11.2695 124.917 10.1758 124.346 9.30859C123.784 8.44141 122.952 8.00781 121.85 8.00781C120.889 8.00781 120.045 8.36328 119.319 9.07422C118.6 9.78516 118.241 10.957 118.241 12.5898C118.241 13.7695 118.389 14.7266 118.686 15.4609C119.241 16.8438 120.276 17.5352 121.792 17.5352ZM136.71 6.44922H139.043C138.746 7.25391 138.085 9.08984 137.062 11.957C136.296 14.1133 135.656 15.8711 135.14 17.2305C133.921 20.4336 133.062 22.3867 132.562 23.0898C132.062 23.793 131.203 24.1445 129.984 24.1445C129.687 24.1445 129.457 24.1328 129.293 24.1094C129.136 24.0859 128.941 24.043 128.707 23.9805V22.0586C129.074 22.1602 129.339 22.2227 129.503 22.2461C129.668 22.2695 129.812 22.2812 129.937 22.2812C130.328 22.2812 130.613 22.2148 130.793 22.082C130.98 21.957 131.136 21.8008 131.261 21.6133C131.3 21.5508 131.441 21.2305 131.683 20.6523C131.925 20.0742 132.101 19.6445 132.21 19.3633L127.57 6.44922H129.96L133.324 16.668L136.71 6.44922ZM146.662 6.44922L150.013 16.668L153.517 6.44922H155.826L151.091 19H148.841L144.212 6.44922H146.662ZM156.67 6.50781H158.815V19H156.67V6.50781ZM156.67 1.78516H158.815V4.17578H156.67V1.78516ZM162.308 15.0625C162.37 15.7656 162.546 16.3047 162.835 16.6797C163.367 17.3594 164.288 17.6992 165.601 17.6992C166.382 17.6992 167.07 17.5312 167.663 17.1953C168.257 16.8516 168.554 16.3242 168.554 15.6133C168.554 15.0742 168.316 14.6641 167.839 14.3828C167.535 14.2109 166.933 14.0117 166.035 13.7852L164.359 13.3633C163.288 13.0977 162.499 12.8008 161.992 12.4727C161.085 11.9023 160.632 11.1133 160.632 10.1055C160.632 8.91797 161.058 7.95703 161.91 7.22266C162.769 6.48828 163.921 6.12109 165.367 6.12109C167.257 6.12109 168.62 6.67578 169.456 7.78516C169.98 8.48828 170.234 9.24609 170.218 10.0586H168.226C168.187 9.58203 168.019 9.14844 167.722 8.75781C167.238 8.20312 166.398 7.92578 165.202 7.92578C164.406 7.92578 163.8 8.07812 163.386 8.38281C162.98 8.6875 162.777 9.08984 162.777 9.58984C162.777 10.1367 163.046 10.5742 163.585 10.9023C163.898 11.0977 164.359 11.2695 164.968 11.418L166.363 11.7578C167.878 12.125 168.894 12.4805 169.41 12.8242C170.23 13.3633 170.64 14.2109 170.64 15.3672C170.64 16.4844 170.214 17.4492 169.363 18.2617C168.519 19.0742 167.23 19.4805 165.495 19.4805C163.628 19.4805 162.304 19.0586 161.523 18.2148C160.749 17.3633 160.335 16.3125 160.281 15.0625H162.308ZM174.203 6.44922V14.7812C174.203 15.4219 174.305 15.9453 174.508 16.3516C174.883 17.1016 175.582 17.4766 176.606 17.4766C178.075 17.4766 179.075 16.8203 179.606 15.5078C179.895 14.8047 180.039 13.8398 180.039 12.6133V6.44922H182.149V19H180.157L180.18 17.1484C179.907 17.625 179.567 18.0273 179.16 18.3555C178.356 19.0117 177.379 19.3398 176.231 19.3398C174.442 19.3398 173.223 18.7422 172.575 17.5469C172.223 16.9062 172.047 16.0508 172.047 14.9805V6.44922H174.203ZM186.111 15.6602C186.111 16.2695 186.333 16.75 186.779 17.1016C187.224 17.4531 187.751 17.6289 188.361 17.6289C189.103 17.6289 189.822 17.457 190.517 17.1133C191.689 16.543 192.275 15.6094 192.275 14.3125V12.6133C192.017 12.7773 191.685 12.9141 191.279 13.0234C190.872 13.1328 190.474 13.2109 190.083 13.2578L188.806 13.4219C188.04 13.5234 187.466 13.6836 187.083 13.9023C186.435 14.2695 186.111 14.8555 186.111 15.6602ZM191.22 11.3945C191.704 11.332 192.029 11.1289 192.193 10.7852C192.286 10.5977 192.333 10.3281 192.333 9.97656C192.333 9.25781 192.075 8.73828 191.56 8.41797C191.052 8.08984 190.322 7.92578 189.368 7.92578C188.267 7.92578 187.486 8.22266 187.025 8.81641C186.767 9.14453 186.599 9.63281 186.521 10.2812H184.552C184.591 8.73438 185.091 7.66016 186.052 7.05859C187.021 6.44922 188.142 6.14453 189.415 6.14453C190.892 6.14453 192.091 6.42578 193.013 6.98828C193.927 7.55078 194.384 8.42578 194.384 9.61328V16.8438C194.384 17.0625 194.427 17.2383 194.513 17.3711C194.607 17.5039 194.798 17.5703 195.087 17.5703C195.181 17.5703 195.286 17.5664 195.404 17.5586C195.521 17.543 195.646 17.5234 195.779 17.5V19.0586C195.45 19.1523 195.2 19.2109 195.029 19.2344C194.857 19.2578 194.622 19.2695 194.325 19.2695C193.599 19.2695 193.072 19.0117 192.743 18.4961C192.572 18.2227 192.45 17.8359 192.38 17.3359C191.95 17.8984 191.333 18.3867 190.529 18.8008C189.724 19.2148 188.837 19.4219 187.868 19.4219C186.704 19.4219 185.751 19.0703 185.009 18.3672C184.275 17.6562 183.908 16.7695 183.908 15.707C183.908 14.543 184.271 13.6406 184.997 13C185.724 12.3594 186.677 11.9648 187.857 11.8164L191.22 11.3945ZM196.951 1.78516H199.061V19H196.951V1.78516ZM208.274 11.5H226.613V13.2227H208.274V11.5ZM240.065 15.592L240.113 15.688L239.369 16.432C238.457 17.344 237.721 18.04 237.161 18.52C236.617 18.984 236.177 19.216 235.841 19.216C235.601 19.216 235.409 19.104 235.265 18.88C235.121 18.64 235.049 18.2 235.049 17.56C235.049 17.112 235.065 16.752 235.097 16.48L237.473 7.984L235.121 8.848L235.073 8.728L239.705 5.992H239.849L236.393 17.824L240.065 15.592ZM239.585 4.096C239.265 4.096 239.001 4 238.793 3.808C238.585 3.6 238.481 3.336 238.481 3.016C238.481 2.616 238.625 2.28 238.913 2.008C239.217 1.72 239.577 1.576 239.993 1.576C240.313 1.576 240.569 1.672 240.761 1.864C240.953 2.056 241.049 2.312 241.049 2.632C241.049 3.032 240.897 3.376 240.593 3.664C240.305 3.952 239.969 4.096 239.585 4.096ZM252.327 0.759999H252.351L247.863 17.872L251.559 15.664L251.607 15.736L250.863 16.48C249.951 17.392 249.215 18.088 248.655 18.568C248.111 19.032 247.671 19.264 247.335 19.264C247.095 19.264 246.903 19.152 246.759 18.928C246.615 18.688 246.543 18.248 246.543 17.608C246.543 17.16 246.559 16.8 246.591 16.528L248.535 8.68H248.247C247.431 11.304 246.759 13.32 246.231 14.728C245.703 16.12 245.135 17.224 244.527 18.04C243.919 18.856 243.231 19.264 242.463 19.264C241.807 19.264 241.319 19.032 240.999 18.568C240.695 18.088 240.543 17.432 240.543 16.6C240.543 15.288 240.847 13.816 241.455 12.184C242.063 10.552 242.871 9.168 243.879 8.032C244.903 6.88 245.991 6.304 247.143 6.304C247.863 6.304 248.495 6.424 249.039 6.664L250.215 1.936L247.455 2.008L247.503 1.864L252.207 0.711999H252.351L252.327 0.759999ZM243.471 17.872C243.807 17.872 244.135 17.664 244.455 17.248C244.791 16.816 245.239 15.888 245.799 14.464C246.375 13.04 247.135 10.88 248.079 7.984C247.887 7.616 247.631 7.344 247.311 7.168C247.007 6.992 246.679 6.904 246.327 6.904C245.655 6.904 245.023 7.424 244.431 8.464C243.839 9.488 243.359 10.72 242.991 12.16C242.639 13.6 242.463 14.856 242.463 15.928C242.463 16.536 242.543 17.016 242.703 17.368C242.879 17.704 243.135 17.872 243.471 17.872ZM258.554 6.184C259.466 6.184 260.13 6.408 260.546 6.856C260.962 7.304 261.154 7.792 261.122 8.32C261.106 9.68 260.442 10.736 259.13 11.488C257.818 12.224 256.162 12.752 254.162 13.072C254.082 14.464 254.298 15.616 254.81 16.528C255.322 17.44 256.146 17.896 257.282 17.896C257.634 17.896 257.93 17.856 258.17 17.776C258.41 17.68 258.642 17.568 258.866 17.44C259.09 17.296 259.258 17.192 259.37 17.128L259.49 17.272C257.762 18.584 256.602 19.24 256.01 19.24C254.938 19.24 254.066 18.864 253.394 18.112C252.738 17.36 252.41 16.304 252.41 14.944C252.41 14.192 252.514 13.4 252.722 12.568C253.074 11.08 253.61 9.856 254.33 8.896C255.066 7.936 255.818 7.248 256.586 6.832C257.37 6.4 258.026 6.184 258.554 6.184ZM254.186 12.712C254.89 12.616 255.618 12.424 256.37 12.136C257.138 11.832 257.794 11.408 258.338 10.864C258.882 10.32 259.154 9.648 259.154 8.848C259.154 8.4 259.042 8.016 258.818 7.696C258.594 7.36 258.17 7.192 257.546 7.192C256.986 7.192 256.418 7.48 255.842 8.056C255.266 8.632 254.794 9.704 254.426 11.272C254.314 11.704 254.234 12.184 254.186 12.712ZM272.62 15.64L272.668 15.736L271.972 16.432C271.06 17.344 270.324 18.04 269.764 18.52C269.204 19 268.748 19.24 268.396 19.24C268.156 19.24 267.964 19.128 267.82 18.904C267.676 18.68 267.604 18.248 267.604 17.608C267.604 17.16 267.62 16.8 267.652 16.528L269.716 10.792C269.988 9.992 270.124 9.336 270.124 8.824C270.124 8.408 270.044 8.096 269.884 7.888C269.74 7.664 269.572 7.552 269.38 7.552C268.692 7.552 267.796 8.664 266.692 10.888C265.588 13.112 264.492 15.816 263.404 19H261.58L264.46 7.768L261.028 9.832L260.98 9.736L261.724 8.992C262.636 8.08 263.364 7.392 263.908 6.928C264.468 6.448 264.916 6.208 265.252 6.208C265.492 6.208 265.684 6.328 265.828 6.568C265.972 6.792 266.044 7.224 266.044 7.864C266.044 8.312 266.028 8.672 265.996 8.944L263.596 16.72H263.884C264.844 13.936 265.924 11.48 267.124 9.352C268.324 7.208 269.492 6.136 270.628 6.136C271.044 6.136 271.388 6.296 271.66 6.616C271.932 6.936 272.068 7.416 272.068 8.056C272.068 8.776 271.892 9.624 271.54 10.6L268.924 17.848L272.62 15.64ZM280.798 7.216C280.286 7.216 279.39 7.136 278.11 6.976L274.99 17.872L278.686 15.64L278.734 15.736L277.966 16.504C277.102 17.384 276.39 18.064 275.83 18.544C275.27 19.024 274.814 19.264 274.462 19.264C274.222 19.264 274.03 19.152 273.886 18.928C273.742 18.688 273.67 18.248 273.67 17.608C273.67 17.16 273.686 16.8 273.718 16.528L276.262 6.928C275.398 6.736 274.878 6.608 274.702 6.544L274.75 6.424H276.454C276.758 6.104 277.142 5.672 277.606 5.128C278.07 4.584 278.478 4.08 278.83 3.616H278.926L278.254 6.424H280.99L280.798 7.216ZM285.276 15.592L285.324 15.688L284.58 16.432C283.668 17.344 282.932 18.04 282.372 18.52C281.828 18.984 281.388 19.216 281.052 19.216C280.812 19.216 280.62 19.104 280.476 18.88C280.332 18.64 280.26 18.2 280.26 17.56C280.26 17.112 280.276 16.752 280.308 16.48L282.684 7.984L280.332 8.848L280.284 8.728L284.916 5.992H285.06L281.604 17.824L285.276 15.592ZM284.796 4.096C284.476 4.096 284.212 4 284.004 3.808C283.796 3.6 283.692 3.336 283.692 3.016C283.692 2.616 283.836 2.28 284.124 2.008C284.428 1.72 284.788 1.576 285.204 1.576C285.524 1.576 285.78 1.672 285.972 1.864C286.164 2.056 286.26 2.312 286.26 2.632C286.26 3.032 286.108 3.376 285.804 3.664C285.516 3.952 285.18 4.096 284.796 4.096ZM293.243 7.216C292.731 7.216 291.835 7.136 290.555 6.976L287.435 17.872L291.131 15.64L291.179 15.736L290.411 16.504C289.547 17.384 288.835 18.064 288.275 18.544C287.715 19.024 287.259 19.264 286.907 19.264C286.667 19.264 286.475 19.152 286.331 18.928C286.187 18.688 286.115 18.248 286.115 17.608C286.115 17.16 286.131 16.8 286.163 16.528L288.707 6.928C287.843 6.736 287.323 6.608 287.147 6.544L287.195 6.424H288.899C289.203 6.104 289.587 5.672 290.051 5.128C290.515 4.584 290.923 4.08 291.275 3.616H291.371L290.699 6.424H293.435L293.243 7.216ZM300.912 6.424H302.952C302.536 8.952 301.64 11.448 300.264 13.912C298.904 16.376 297.072 18.6 294.768 20.584C292.48 22.584 289.808 24.12 286.752 25.192L287.208 23.44L287.328 23.368C290.304 22.808 292.848 21.64 294.96 19.864L295.392 7.84L292.032 9.832L291.984 9.736C291.984 9.736 292.224 9.496 292.704 9.016C293.568 8.136 294.288 7.448 294.864 6.952C295.456 6.456 295.928 6.208 296.28 6.208C296.456 6.208 296.6 6.272 296.712 6.4C296.824 6.528 296.912 6.792 296.976 7.192C297.056 7.576 297.12 8.16 297.168 8.944L296.568 18.328C297.96 16.76 299.016 14.952 299.736 12.904C300.456 10.856 300.824 8.728 300.84 6.52L300.912 6.424Z" fill="white"/>
</svg>
