<svg width="48" height="48" viewBox="0 0 48 48" fill="none" xmlns="http://www.w3.org/2000/svg">
<path d="M12 46C9.23333 46 6.87533 45.0247 4.926 43.074C2.97667 41.1233 2.00133 38.7653 2 36H5C5 37.9333 5.68333 39.5833 7.05 40.95C8.41667 42.3167 10.0667 43 12 43V46ZM20.1 46C19.1 46 18.1667 45.7753 17.3 45.326C16.4333 44.8767 15.7167 44.2347 15.15 43.4L2.4 24.75L3.6 23.6C4.23333 22.9667 4.98333 22.6 5.85 22.5C6.71667 22.4 7.5 22.6 8.2 23.1L14 27.15V8C14 7.43333 14.192 6.95867 14.576 6.576C14.96 6.19333 15.4347 6.00133 16 6C16.5653 5.99867 17.0407 6.19067 17.426 6.576C17.8113 6.96133 18.0027 7.436 18 8V24H22V4C22 3.43333 22.192 2.95867 22.576 2.576C22.96 2.19333 23.4347 2.00133 24 2C24.5653 1.99867 25.0407 2.19067 25.426 2.576C25.8113 2.96133 26.0027 3.436 26 4V24H30V6C30 5.43333 30.192 4.95867 30.576 4.576C30.96 4.19333 31.4347 4.00133 32 4C32.5653 3.99867 33.0407 4.19067 33.426 4.576C33.8113 4.96133 34.0027 5.436 34 6V24H38V10C38 9.43333 38.192 8.95867 38.576 8.576C38.96 8.19333 39.4347 8.00133 40 8C40.5653 7.99867 41.0407 8.19067 41.426 8.576C41.8113 8.96133 42.0027 9.436 42 10V38C42 40.2 41.2167 42.0833 39.65 43.65C38.0833 45.2167 36.2 46 34 46H20.1ZM44 10.05C44 8.35 43.4167 6.91667 42.25 5.75C41.0833 4.58333 39.65 4 37.95 4V1C40.45 1 42.5833 1.88333 44.35 3.65C46.1167 5.41667 47 7.55 47 10.05H44Z" fill="#8C1B17"/>
</svg>
