<svg width="60" height="60" viewBox="0 0 60 60" fill="none" xmlns="http://www.w3.org/2000/svg">
<circle cx="30" cy="30" r="29" stroke="white" stroke-width="2"/>
<path d="M35.8146 32.668C35.9213 31.788 36.0013 30.908 36.0013 30.0013C36.0013 29.0946 35.9213 28.2146 35.8146 27.3346H40.3213C40.5346 28.188 40.668 29.0813 40.668 30.0013C40.668 30.9213 40.5346 31.8146 40.3213 32.668M33.4546 40.0813C34.2546 38.6013 34.868 37.0013 35.2946 35.3346H39.228C37.9362 37.559 35.8868 39.244 33.4546 40.0813ZM33.1213 32.668H26.8813C26.748 31.788 26.668 30.908 26.668 30.0013C26.668 29.0946 26.748 28.2013 26.8813 27.3346H33.1213C33.2413 28.2013 33.3346 29.0946 33.3346 30.0013C33.3346 30.908 33.2413 31.788 33.1213 32.668ZM30.0013 40.6146C28.8946 39.0146 28.0013 37.2413 27.4546 35.3346H32.548C32.0013 37.2413 31.108 39.0146 30.0013 40.6146ZM24.668 24.668H20.7746C22.0528 22.4373 24.1008 20.7496 26.5346 19.9213C25.7346 21.4013 25.1346 23.0013 24.668 24.668ZM20.7746 35.3346H24.668C25.1346 37.0013 25.7346 38.6013 26.5346 40.0813C24.1057 39.2444 22.0604 37.5589 20.7746 35.3346ZM19.6813 32.668C19.468 31.8146 19.3346 30.9213 19.3346 30.0013C19.3346 29.0813 19.468 28.188 19.6813 27.3346H24.188C24.0813 28.2146 24.0013 29.0946 24.0013 30.0013C24.0013 30.908 24.0813 31.788 24.188 32.668M30.0013 19.3746C31.108 20.9746 32.0013 22.7613 32.548 24.668H27.4546C28.0013 22.7613 28.8946 20.9746 30.0013 19.3746ZM39.228 24.668H35.2946C34.8767 23.0168 34.2588 21.4228 33.4546 19.9213C35.908 20.7613 37.948 22.4546 39.228 24.668ZM30.0013 16.668C22.628 16.668 16.668 22.668 16.668 30.0013C16.668 33.5375 18.0727 36.9289 20.5732 39.4294C21.8113 40.6675 23.2812 41.6496 24.8989 42.3197C26.5165 42.9898 28.2503 43.3346 30.0013 43.3346C33.5375 43.3346 36.9289 41.9299 39.4294 39.4294C41.9299 36.9289 43.3346 33.5375 43.3346 30.0013C43.3346 28.2503 42.9898 26.5165 42.3197 24.8989C41.6496 23.2812 40.6675 21.8113 39.4294 20.5732C38.1913 19.3351 36.7214 18.353 35.1037 17.6829C33.4861 17.0128 31.7523 16.668 30.0013 16.668Z" fill="white"/>
</svg>
